<mxfile host="Electron" modified="2024-07-10T21:40:18.665Z" agent="Mozilla/5.0 (Windows NT 10.0; Win64; x64) AppleWebKit/537.36 (KHTML, like Gecko) draw.io/24.6.4 Chrome/124.0.6367.207 Electron/30.0.6 Safari/537.36" etag="cS0uIKgC2uysU5-2LRY8" version="24.6.4" type="device">
  <diagram name="Page-1" id="z6_k0j583458yBhAgea8">
    <mxGraphModel dx="3837" dy="2428" grid="1" gridSize="10" guides="1" tooltips="1" connect="1" arrows="1" fold="1" page="1" pageScale="1" pageWidth="827" pageHeight="1169" math="0" shadow="0">
      <root>
        <mxCell id="0" />
        <mxCell id="1" parent="0" />
        <mxCell id="1vF6z5qYPoborKcWA8Q8-147" value="" style="ellipse;shape=cloud;whiteSpace=wrap;html=1;fontFamily=Helvetica;fontSize=11;fontColor=default;labelBackgroundColor=default;fillColor=#FFF2CC;strokeColor=#808080;" parent="1" vertex="1">
          <mxGeometry x="-1623.5" y="-1165" width="2320" height="2620" as="geometry" />
        </mxCell>
        <mxCell id="1vF6z5qYPoborKcWA8Q8-1" value="&lt;b&gt;&lt;font style=&quot;font-size: 18px;&quot;&gt;Internet&lt;/font&gt;&lt;/b&gt;" style="ellipse;shape=cloud;whiteSpace=wrap;html=1;fillColor=#67AB9F;" parent="1" vertex="1">
          <mxGeometry x="580" y="-155" width="340" height="255" as="geometry" />
        </mxCell>
        <mxCell id="1vF6z5qYPoborKcWA8Q8-3" value="&lt;b&gt;FAI&lt;/b&gt;" style="ellipse;shape=cloud;whiteSpace=wrap;html=1;fillColor=#33FFFF;" parent="1" vertex="1">
          <mxGeometry x="-140.91" y="241" width="200.91" height="130" as="geometry" />
        </mxCell>
        <mxCell id="1vF6z5qYPoborKcWA8Q8-4" value="&lt;b&gt;FAI&lt;/b&gt;" style="ellipse;shape=cloud;whiteSpace=wrap;html=1;fillColor=#33FFFF;" parent="1" vertex="1">
          <mxGeometry x="710" y="215" width="200.91" height="135" as="geometry" />
        </mxCell>
        <mxCell id="1vF6z5qYPoborKcWA8Q8-5" value="&lt;b&gt;&lt;font style=&quot;font-size: 18px;&quot;&gt;Biarritz&lt;/font&gt;&lt;/b&gt;&lt;div&gt;&lt;b&gt;&lt;font style=&quot;font-size: 18px;&quot;&gt;&lt;br&gt;&lt;/font&gt;&lt;/b&gt;&lt;/div&gt;&lt;div&gt;&lt;div style=&quot;border-color: var(--border-color);&quot;&gt;Réseau : 192.168.10.0/25&lt;/div&gt;&lt;div style=&quot;border-color: var(--border-color);&quot;&gt;&lt;br style=&quot;border-color: var(--border-color);&quot;&gt;&lt;/div&gt;&lt;div style=&quot;border-color: var(--border-color);&quot;&gt;Masque :&lt;/div&gt;&lt;div style=&quot;border-color: var(--border-color);&quot;&gt;255.255.255.128&lt;/div&gt;&lt;/div&gt;" style="ellipse;shape=cloud;whiteSpace=wrap;html=1;fillColor=#66FF66;" parent="1" vertex="1">
          <mxGeometry x="1448.35" y="15" width="266.67" height="200" as="geometry" />
        </mxCell>
        <mxCell id="1vF6z5qYPoborKcWA8Q8-6" value="&lt;b&gt;&lt;font style=&quot;font-size: 18px;&quot;&gt;Troyes&lt;/font&gt;&lt;/b&gt;&lt;div&gt;&lt;b&gt;&lt;font style=&quot;font-size: 18px;&quot;&gt;&lt;br&gt;&lt;/font&gt;&lt;/b&gt;&lt;/div&gt;&lt;div&gt;&lt;div style=&quot;border-color: var(--border-color);&quot;&gt;Réseau : 192.168.11.0/25&lt;/div&gt;&lt;div style=&quot;border-color: var(--border-color);&quot;&gt;&lt;br style=&quot;border-color: var(--border-color);&quot;&gt;&lt;/div&gt;&lt;div style=&quot;border-color: var(--border-color);&quot;&gt;Masque :&lt;/div&gt;&lt;div style=&quot;border-color: var(--border-color);&quot;&gt;255.255.255.128&lt;/div&gt;&lt;/div&gt;" style="ellipse;shape=cloud;whiteSpace=wrap;html=1;fillColor=#B5739D;" parent="1" vertex="1">
          <mxGeometry x="1286.3700000000001" y="581" width="353.56" height="310.5" as="geometry" />
        </mxCell>
        <mxCell id="1vF6z5qYPoborKcWA8Q8-7" value="&lt;b&gt;&lt;font style=&quot;font-size: 18px;&quot;&gt;Nice&lt;/font&gt;&lt;/b&gt;&lt;div&gt;&lt;b&gt;&lt;font style=&quot;font-size: 18px;&quot;&gt;&lt;br&gt;&lt;/font&gt;&lt;/b&gt;&lt;/div&gt;&lt;div&gt;&lt;div style=&quot;border-color: var(--border-color);&quot;&gt;&lt;div style=&quot;border-color: var(--border-color);&quot;&gt;Réseau : 192.168.12.0/25&lt;/div&gt;&lt;div style=&quot;border-color: var(--border-color);&quot;&gt;&lt;br style=&quot;border-color: var(--border-color);&quot;&gt;&lt;/div&gt;&lt;div style=&quot;border-color: var(--border-color);&quot;&gt;Masque :&lt;/div&gt;&lt;div style=&quot;border-color: var(--border-color);&quot;&gt;255.255.255.128&lt;/div&gt;&lt;/div&gt;&lt;/div&gt;" style="ellipse;shape=cloud;whiteSpace=wrap;html=1;fillColor=#E6D0DE;" parent="1" vertex="1">
          <mxGeometry x="604.12" y="784" width="392.88" height="310" as="geometry" />
        </mxCell>
        <mxCell id="1vF6z5qYPoborKcWA8Q8-8" value="&lt;b&gt;&lt;font style=&quot;font-size: 18px;&quot;&gt;IV eme&lt;/font&gt;&lt;/b&gt;&lt;div&gt;&lt;b&gt;&lt;font style=&quot;font-size: 18px;&quot;&gt;&lt;br&gt;&lt;/font&gt;&lt;/b&gt;&lt;/div&gt;&lt;div&gt;&lt;div style=&quot;border-color: var(--border-color);&quot;&gt;&lt;div style=&quot;border-color: var(--border-color);&quot;&gt;Réseau : 192.168.4.0/25&lt;/div&gt;&lt;div style=&quot;border-color: var(--border-color);&quot;&gt;&lt;br style=&quot;border-color: var(--border-color);&quot;&gt;&lt;/div&gt;&lt;div style=&quot;border-color: var(--border-color);&quot;&gt;Masque :&lt;/div&gt;&lt;div style=&quot;border-color: var(--border-color);&quot;&gt;255.255.255.128&lt;/div&gt;&lt;/div&gt;&lt;/div&gt;" style="ellipse;shape=cloud;whiteSpace=wrap;html=1;fillColor=#FFFFFF;" parent="1" vertex="1">
          <mxGeometry x="168.02" y="595" width="260" height="230" as="geometry" />
        </mxCell>
        <mxCell id="1vF6z5qYPoborKcWA8Q8-9" value="&lt;b&gt;&lt;font style=&quot;font-size: 18px;&quot;&gt;V eme&lt;/font&gt;&lt;/b&gt;&lt;div&gt;&lt;b&gt;&lt;font style=&quot;font-size: 18px;&quot;&gt;&lt;br&gt;&lt;/font&gt;&lt;/b&gt;&lt;/div&gt;&lt;div&gt;&lt;div style=&quot;border-color: var(--border-color);&quot;&gt;&lt;div style=&quot;border-color: var(--border-color);&quot;&gt;Réseau : 192.168.5.0/25&lt;/div&gt;&lt;div style=&quot;border-color: var(--border-color);&quot;&gt;&lt;br style=&quot;border-color: var(--border-color);&quot;&gt;&lt;/div&gt;&lt;div style=&quot;border-color: var(--border-color);&quot;&gt;Masque :&lt;/div&gt;&lt;div style=&quot;border-color: var(--border-color);&quot;&gt;255.255.255.128&lt;/div&gt;&lt;/div&gt;&lt;/div&gt;" style="ellipse;shape=cloud;whiteSpace=wrap;html=1;fillColor=#FFFFFF;" parent="1" vertex="1">
          <mxGeometry x="-273.75" y="794" width="280" height="200" as="geometry" />
        </mxCell>
        <mxCell id="1vF6z5qYPoborKcWA8Q8-10" value="&lt;b&gt;&lt;font style=&quot;font-size: 18px;&quot;&gt;VI eme&lt;/font&gt;&lt;/b&gt;&lt;div&gt;&lt;b&gt;&lt;font style=&quot;font-size: 18px;&quot;&gt;&lt;br&gt;&lt;/font&gt;&lt;/b&gt;&lt;/div&gt;&lt;div&gt;&lt;div style=&quot;border-color: var(--border-color);&quot;&gt;&lt;div style=&quot;border-color: var(--border-color);&quot;&gt;Réseau : 192.168.6.0/25&lt;/div&gt;&lt;div style=&quot;border-color: var(--border-color);&quot;&gt;&lt;br style=&quot;border-color: var(--border-color);&quot;&gt;&lt;/div&gt;&lt;div style=&quot;border-color: var(--border-color);&quot;&gt;Masque :&lt;/div&gt;&lt;div style=&quot;border-color: var(--border-color);&quot;&gt;255.255.255.128&lt;/div&gt;&lt;/div&gt;&lt;/div&gt;" style="ellipse;shape=cloud;whiteSpace=wrap;html=1;fillColor=#FFFFFF;" parent="1" vertex="1">
          <mxGeometry x="-721.43" y="618" width="260" height="180" as="geometry" />
        </mxCell>
        <mxCell id="1vF6z5qYPoborKcWA8Q8-11" value="&lt;b&gt;&lt;font style=&quot;font-size: 18px;&quot;&gt;XVIII eme&lt;/font&gt;&lt;/b&gt;&lt;div&gt;&lt;span style=&quot;font-size: 18px;&quot;&gt;&lt;b&gt;&lt;br&gt;&lt;/b&gt;&lt;/span&gt;&lt;div&gt;&lt;div style=&quot;border-color: var(--border-color);&quot;&gt;&lt;div style=&quot;border-color: var(--border-color);&quot;&gt;&lt;div style=&quot;border-color: var(--border-color);&quot;&gt;&lt;div style=&quot;border-color: var(--border-color);&quot;&gt;Réseau : 192.168.16.0/25&lt;/div&gt;&lt;div style=&quot;border-color: var(--border-color);&quot;&gt;&lt;br style=&quot;border-color: var(--border-color);&quot;&gt;&lt;/div&gt;&lt;div style=&quot;border-color: var(--border-color);&quot;&gt;Masque :&lt;/div&gt;&lt;div style=&quot;border-color: var(--border-color);&quot;&gt;255.255.255.128&lt;/div&gt;&lt;/div&gt;&lt;/div&gt;&lt;/div&gt;&lt;/div&gt;&lt;/div&gt;" style="ellipse;shape=cloud;whiteSpace=wrap;html=1;fillColor=#FFFFFF;" parent="1" vertex="1">
          <mxGeometry x="-981" y="271" width="320" height="270" as="geometry" />
        </mxCell>
        <mxCell id="1vF6z5qYPoborKcWA8Q8-12" value="&lt;b&gt;&lt;font style=&quot;font-size: 18px;&quot;&gt;III eme&lt;/font&gt;&lt;/b&gt;&lt;div&gt;&lt;b&gt;&lt;font style=&quot;font-size: 18px;&quot;&gt;&lt;br&gt;&lt;/font&gt;&lt;/b&gt;&lt;/div&gt;&lt;div&gt;&lt;div style=&quot;border-color: var(--border-color);&quot;&gt;Réseau : 192.168.3.0/25&lt;/div&gt;&lt;div style=&quot;border-color: var(--border-color);&quot;&gt;&lt;br style=&quot;border-color: var(--border-color);&quot;&gt;&lt;/div&gt;&lt;div style=&quot;border-color: var(--border-color);&quot;&gt;Masque :&lt;/div&gt;&lt;div style=&quot;border-color: var(--border-color);&quot;&gt;255.255.255.128&lt;/div&gt;&lt;/div&gt;" style="ellipse;shape=cloud;whiteSpace=wrap;html=1;fillColor=#FFFFFF;" parent="1" vertex="1">
          <mxGeometry x="-1030.54" y="-110" width="323" height="255.71" as="geometry" />
        </mxCell>
        <mxCell id="1vF6z5qYPoborKcWA8Q8-13" value="&lt;b&gt;&lt;font style=&quot;font-size: 18px;&quot;&gt;II eme&lt;/font&gt;&lt;/b&gt;&lt;div&gt;&lt;br&gt;&lt;/div&gt;&lt;div&gt;Réseau : 192.168.2.0/25&lt;/div&gt;&lt;div&gt;&lt;br&gt;&lt;/div&gt;&lt;div&gt;Masque :&lt;/div&gt;&lt;div&gt;255.255.255.128&lt;/div&gt;" style="ellipse;shape=cloud;whiteSpace=wrap;html=1;fillColor=#FFFFFF;" parent="1" vertex="1">
          <mxGeometry x="-711.22" y="-811" width="467" height="500" as="geometry" />
        </mxCell>
        <mxCell id="1vF6z5qYPoborKcWA8Q8-14" value="&lt;span style=&quot;font-size: 18px;&quot;&gt;&lt;b&gt;1 er&lt;/b&gt;&lt;/span&gt;&lt;div&gt;&lt;span style=&quot;font-size: 18px;&quot;&gt;&lt;b&gt;&lt;br&gt;&lt;/b&gt;&lt;/span&gt;&lt;/div&gt;&lt;div&gt;&lt;div style=&quot;border-color: var(--border-color);&quot;&gt;&lt;div style=&quot;border-color: var(--border-color);&quot;&gt;Réseau : 192.168.1.0/25&lt;/div&gt;&lt;div style=&quot;border-color: var(--border-color);&quot;&gt;&lt;br style=&quot;border-color: var(--border-color);&quot;&gt;&lt;/div&gt;&lt;div style=&quot;border-color: var(--border-color);&quot;&gt;Masque :&lt;/div&gt;&lt;div style=&quot;border-color: var(--border-color);&quot;&gt;255.255.255.128&lt;/div&gt;&lt;/div&gt;&lt;/div&gt;" style="ellipse;shape=cloud;whiteSpace=wrap;html=1;fillColor=#FFFFFF;" parent="1" vertex="1">
          <mxGeometry x="41.010000000000005" y="-496" width="300" height="270" as="geometry" />
        </mxCell>
        <mxCell id="1vF6z5qYPoborKcWA8Q8-15" value="" style="endArrow=none;html=1;rounded=0;exitX=0.875;exitY=0.5;exitDx=0;exitDy=0;exitPerimeter=0;entryX=0.13;entryY=0.77;entryDx=0;entryDy=0;entryPerimeter=0;strokeColor=#808080;" parent="1" source="1vF6z5qYPoborKcWA8Q8-3" target="1vF6z5qYPoborKcWA8Q8-1" edge="1">
          <mxGeometry width="50" height="50" relative="1" as="geometry">
            <mxPoint y="330" as="sourcePoint" />
            <mxPoint x="50" y="280" as="targetPoint" />
          </mxGeometry>
        </mxCell>
        <mxCell id="1vF6z5qYPoborKcWA8Q8-16" value="" style="sketch=0;points=[[0.015,0.015,0],[0.985,0.015,0],[0.985,0.985,0],[0.015,0.985,0],[0.25,0,0],[0.5,0,0],[0.75,0,0],[1,0.25,0],[1,0.5,0],[1,0.75,0],[0.75,1,0],[0.5,1,0],[0.25,1,0],[0,0.75,0],[0,0.5,0],[0,0.25,0]];verticalLabelPosition=bottom;html=1;verticalAlign=top;aspect=fixed;align=center;pointerEvents=1;shape=mxgraph.cisco19.rect;prIcon=l2_switch;fillColor=#FF99FF;strokeColor=#005073;" parent="1" vertex="1">
          <mxGeometry x="-401.21999999999997" y="-386" width="50" height="50" as="geometry" />
        </mxCell>
        <mxCell id="1vF6z5qYPoborKcWA8Q8-17" value="" style="sketch=0;points=[[0.015,0.015,0],[0.985,0.015,0],[0.985,0.985,0],[0.015,0.985,0],[0.25,0,0],[0.5,0,0],[0.75,0,0],[1,0.25,0],[1,0.5,0],[1,0.75,0],[0.75,1,0],[0.5,1,0],[0.25,1,0],[0,0.75,0],[0,0.5,0],[0,0.25,0]];verticalLabelPosition=bottom;html=1;verticalAlign=top;aspect=fixed;align=center;pointerEvents=1;shape=mxgraph.cisco19.rect;prIcon=l2_switch;fillColor=#FF99FF;strokeColor=#005073;" parent="1" vertex="1">
          <mxGeometry x="-706" y="54.00000000000001" width="50" height="50" as="geometry" />
        </mxCell>
        <mxCell id="1vF6z5qYPoborKcWA8Q8-18" value="" style="sketch=0;points=[[0.015,0.015,0],[0.985,0.015,0],[0.985,0.985,0],[0.015,0.985,0],[0.25,0,0],[0.5,0,0],[0.75,0,0],[1,0.25,0],[1,0.5,0],[1,0.75,0],[0.75,1,0],[0.5,1,0],[0.25,1,0],[0,0.75,0],[0,0.5,0],[0,0.25,0]];verticalLabelPosition=bottom;html=1;verticalAlign=top;aspect=fixed;align=center;pointerEvents=1;shape=mxgraph.cisco19.rect;prIcon=l2_switch;fillColor=#FF99FF;strokeColor=#005073;" parent="1" vertex="1">
          <mxGeometry x="-731" y="381" width="50" height="50" as="geometry" />
        </mxCell>
        <mxCell id="1vF6z5qYPoborKcWA8Q8-19" value="" style="sketch=0;points=[[0.015,0.015,0],[0.985,0.015,0],[0.985,0.985,0],[0.015,0.985,0],[0.25,0,0],[0.5,0,0],[0.75,0,0],[1,0.25,0],[1,0.5,0],[1,0.75,0],[0.75,1,0],[0.5,1,0],[0.25,1,0],[0,0.75,0],[0,0.5,0],[0,0.25,0]];verticalLabelPosition=bottom;html=1;verticalAlign=top;aspect=fixed;align=center;pointerEvents=1;shape=mxgraph.cisco19.rect;prIcon=l2_switch;fillColor=#FF99FF;strokeColor=#005073;" parent="1" vertex="1">
          <mxGeometry x="-521.43" y="648" width="50" height="50" as="geometry" />
        </mxCell>
        <mxCell id="1vF6z5qYPoborKcWA8Q8-20" value="" style="sketch=0;points=[[0.015,0.015,0],[0.985,0.015,0],[0.985,0.985,0],[0.015,0.985,0],[0.25,0,0],[0.5,0,0],[0.75,0,0],[1,0.25,0],[1,0.5,0],[1,0.75,0],[0.75,1,0],[0.5,1,0],[0.25,1,0],[0,0.75,0],[0,0.5,0],[0,0.25,0]];verticalLabelPosition=bottom;html=1;verticalAlign=top;aspect=fixed;align=center;pointerEvents=1;shape=mxgraph.cisco19.rect;prIcon=l2_switch;fillColor=#FF99FF;strokeColor=#005073;" parent="1" vertex="1">
          <mxGeometry x="-153.63" y="788" width="50" height="50" as="geometry" />
        </mxCell>
        <mxCell id="1vF6z5qYPoborKcWA8Q8-21" value="" style="sketch=0;points=[[0.015,0.015,0],[0.985,0.015,0],[0.985,0.985,0],[0.015,0.985,0],[0.25,0,0],[0.5,0,0],[0.75,0,0],[1,0.25,0],[1,0.5,0],[1,0.75,0],[0.75,1,0],[0.5,1,0],[0.25,1,0],[0,0.75,0],[0,0.5,0],[0,0.25,0]];verticalLabelPosition=bottom;html=1;verticalAlign=top;aspect=fixed;align=center;pointerEvents=1;shape=mxgraph.cisco19.rect;prIcon=l2_switch;fillColor=#FF99FF;strokeColor=#005073;" parent="1" vertex="1">
          <mxGeometry x="198.02" y="615" width="50" height="50" as="geometry" />
        </mxCell>
        <mxCell id="1vF6z5qYPoborKcWA8Q8-22" value="" style="sketch=0;points=[[0.015,0.015,0],[0.985,0.015,0],[0.985,0.985,0],[0.015,0.985,0],[0.25,0,0],[0.5,0,0],[0.75,0,0],[1,0.25,0],[1,0.5,0],[1,0.75,0],[0.75,1,0],[0.5,1,0],[0.25,1,0],[0,0.75,0],[0,0.5,0],[0,0.25,0]];verticalLabelPosition=bottom;html=1;verticalAlign=top;aspect=fixed;align=center;pointerEvents=1;shape=mxgraph.cisco19.rect;prIcon=l2_switch;fillColor=#FF99FF;strokeColor=#005073;" parent="1" vertex="1">
          <mxGeometry x="161.01000000000002" y="-266" width="50" height="50" as="geometry" />
        </mxCell>
        <mxCell id="1vF6z5qYPoborKcWA8Q8-24" value="" style="sketch=0;points=[[0.5,0,0],[1,0.5,0],[0.5,1,0],[0,0.5,0],[0.145,0.145,0],[0.8555,0.145,0],[0.855,0.8555,0],[0.145,0.855,0]];verticalLabelPosition=bottom;html=1;verticalAlign=top;aspect=fixed;align=center;pointerEvents=1;shape=mxgraph.cisco19.rect;prIcon=router;fillColor=#EA6B66;strokeColor=#005073;" parent="1" vertex="1">
          <mxGeometry x="-147.10999999999999" y="-26.000000000000007" width="50" height="50" as="geometry" />
        </mxCell>
        <mxCell id="1vF6z5qYPoborKcWA8Q8-25" value="" style="sketch=0;points=[[0.5,0,0],[1,0.5,0],[0.5,1,0],[0,0.5,0],[0.145,0.145,0],[0.8555,0.145,0],[0.855,0.8555,0],[0.145,0.855,0]];verticalLabelPosition=bottom;html=1;verticalAlign=top;aspect=fixed;align=center;pointerEvents=1;shape=mxgraph.cisco19.rect;prIcon=router;fillColor=#EA6B66;strokeColor=#005073;" parent="1" vertex="1">
          <mxGeometry x="-278.22" y="29.71" width="50" height="50" as="geometry" />
        </mxCell>
        <mxCell id="1vF6z5qYPoborKcWA8Q8-26" value="" style="sketch=0;points=[[0.5,0,0],[1,0.5,0],[0.5,1,0],[0,0.5,0],[0.145,0.145,0],[0.8555,0.145,0],[0.855,0.8555,0],[0.145,0.855,0]];verticalLabelPosition=bottom;html=1;verticalAlign=top;aspect=fixed;align=center;pointerEvents=1;shape=mxgraph.cisco19.rect;prIcon=router;fillColor=#EA6B66;strokeColor=#005073;" parent="1" vertex="1">
          <mxGeometry x="-401.43" y="160" width="50" height="50" as="geometry" />
        </mxCell>
        <mxCell id="1vF6z5qYPoborKcWA8Q8-27" value="" style="sketch=0;points=[[0.5,0,0],[1,0.5,0],[0.5,1,0],[0,0.5,0],[0.145,0.145,0],[0.8555,0.145,0],[0.855,0.8555,0],[0.145,0.855,0]];verticalLabelPosition=bottom;html=1;verticalAlign=top;aspect=fixed;align=center;pointerEvents=1;shape=mxgraph.cisco19.rect;prIcon=router;fillColor=#EA6B66;strokeColor=#005073;" parent="1" vertex="1">
          <mxGeometry x="-362.04" y="271" width="50" height="50" as="geometry" />
        </mxCell>
        <mxCell id="1vF6z5qYPoborKcWA8Q8-28" value="" style="sketch=0;points=[[0.5,0,0],[1,0.5,0],[0.5,1,0],[0,0.5,0],[0.145,0.145,0],[0.8555,0.145,0],[0.855,0.8555,0],[0.145,0.855,0]];verticalLabelPosition=bottom;html=1;verticalAlign=top;aspect=fixed;align=center;pointerEvents=1;shape=mxgraph.cisco19.rect;prIcon=router;fillColor=#EA6B66;strokeColor=#005073;" parent="1" vertex="1">
          <mxGeometry x="-250" y="345" width="50" height="50" as="geometry" />
        </mxCell>
        <mxCell id="1vF6z5qYPoborKcWA8Q8-29" value="" style="sketch=0;points=[[0.5,0,0],[1,0.5,0],[0.5,1,0],[0,0.5,0],[0.145,0.145,0],[0.8555,0.145,0],[0.855,0.8555,0],[0.145,0.855,0]];verticalLabelPosition=bottom;html=1;verticalAlign=top;aspect=fixed;align=center;pointerEvents=1;shape=mxgraph.cisco19.rect;prIcon=router;fillColor=#EA6B66;strokeColor=#005073;" parent="1" vertex="1">
          <mxGeometry x="-120" y="410" width="50" height="50" as="geometry" />
        </mxCell>
        <mxCell id="1vF6z5qYPoborKcWA8Q8-30" value="" style="sketch=0;points=[[0.5,0,0],[1,0.5,0],[0.5,1,0],[0,0.5,0],[0.145,0.145,0],[0.8555,0.145,0],[0.855,0.8555,0],[0.145,0.855,0]];verticalLabelPosition=bottom;html=1;verticalAlign=top;aspect=fixed;align=center;pointerEvents=1;shape=mxgraph.cisco19.rect;prIcon=router;fillColor=#EA6B66;strokeColor=#005073;" parent="1" vertex="1">
          <mxGeometry x="28.019999999999996" y="365" width="50" height="50" as="geometry" />
        </mxCell>
        <mxCell id="1vF6z5qYPoborKcWA8Q8-32" value="" style="sketch=0;points=[[0.015,0.015,0],[0.985,0.015,0],[0.985,0.985,0],[0.015,0.985,0],[0.25,0,0],[0.5,0,0],[0.75,0,0],[1,0.25,0],[1,0.5,0],[1,0.75,0],[0.75,1,0],[0.5,1,0],[0.25,1,0],[0,0.75,0],[0,0.5,0],[0,0.25,0]];verticalLabelPosition=bottom;html=1;verticalAlign=top;aspect=fixed;align=center;pointerEvents=1;shape=mxgraph.cisco19.rect;prIcon=l2_switch;fillColor=#FFD966;strokeColor=#005073;" parent="1" vertex="1">
          <mxGeometry x="780" y="310" width="40" height="40" as="geometry" />
        </mxCell>
        <mxCell id="1vF6z5qYPoborKcWA8Q8-33" value="" style="sketch=0;points=[[0.5,0,0],[1,0.5,0],[0.5,1,0],[0,0.5,0],[0.145,0.145,0],[0.8555,0.145,0],[0.855,0.8555,0],[0.145,0.855,0]];verticalLabelPosition=bottom;html=1;verticalAlign=top;aspect=fixed;align=center;pointerEvents=1;shape=mxgraph.cisco19.rect;prIcon=router;fillColor=#EA6B66;strokeColor=#005073;" parent="1" vertex="1">
          <mxGeometry x="677" y="465" width="50" height="50" as="geometry" />
        </mxCell>
        <mxCell id="1vF6z5qYPoborKcWA8Q8-34" value="" style="sketch=0;points=[[0.5,0,0],[1,0.5,0],[0.5,1,0],[0,0.5,0],[0.145,0.145,0],[0.8555,0.145,0],[0.855,0.8555,0],[0.145,0.855,0]];verticalLabelPosition=bottom;html=1;verticalAlign=top;aspect=fixed;align=center;pointerEvents=1;shape=mxgraph.cisco19.rect;prIcon=router;fillColor=#EA6B66;strokeColor=#005073;" parent="1" vertex="1">
          <mxGeometry x="810" y="445" width="50" height="50" as="geometry" />
        </mxCell>
        <mxCell id="1vF6z5qYPoborKcWA8Q8-35" value="" style="sketch=0;points=[[0.015,0.015,0],[0.985,0.015,0],[0.985,0.985,0],[0.015,0.985,0],[0.25,0,0],[0.5,0,0],[0.75,0,0],[1,0.25,0],[1,0.5,0],[1,0.75,0],[0.75,1,0],[0.5,1,0],[0.25,1,0],[0,0.75,0],[0,0.5,0],[0,0.25,0]];verticalLabelPosition=bottom;html=1;verticalAlign=top;aspect=fixed;align=center;pointerEvents=1;shape=mxgraph.cisco19.rect;prIcon=l2_switch;fillColor=#FF99FF;strokeColor=#005073;" parent="1" vertex="1">
          <mxGeometry x="737" y="788" width="50" height="50" as="geometry" />
        </mxCell>
        <mxCell id="1vF6z5qYPoborKcWA8Q8-36" value="" style="sketch=0;points=[[0.015,0.015,0],[0.985,0.015,0],[0.985,0.985,0],[0.015,0.985,0],[0.25,0,0],[0.5,0,0],[0.75,0,0],[1,0.25,0],[1,0.5,0],[1,0.75,0],[0.75,1,0],[0.5,1,0],[0.25,1,0],[0,0.75,0],[0,0.5,0],[0,0.25,0]];verticalLabelPosition=bottom;html=1;verticalAlign=top;aspect=fixed;align=center;pointerEvents=1;shape=mxgraph.cisco19.rect;prIcon=l2_switch;fillColor=#FF99FF;strokeColor=#005073;" parent="1" vertex="1">
          <mxGeometry x="1339.93" y="611.5" width="50" height="50" as="geometry" />
        </mxCell>
        <mxCell id="1vF6z5qYPoborKcWA8Q8-215" value="" style="edgeStyle=none;rounded=0;orthogonalLoop=1;jettySize=auto;html=1;strokeColor=#0000FF;align=center;verticalAlign=middle;fontFamily=Helvetica;fontSize=11;fontColor=default;labelBackgroundColor=default;endArrow=none;" parent="1" source="1vF6z5qYPoborKcWA8Q8-37" target="1vF6z5qYPoborKcWA8Q8-213" edge="1">
          <mxGeometry relative="1" as="geometry" />
        </mxCell>
        <mxCell id="1vF6z5qYPoborKcWA8Q8-37" value="" style="sketch=0;points=[[0.5,0,0],[1,0.5,0],[0.5,1,0],[0,0.5,0],[0.145,0.145,0],[0.8555,0.145,0],[0.855,0.8555,0],[0.145,0.855,0]];verticalLabelPosition=bottom;html=1;verticalAlign=top;aspect=fixed;align=center;pointerEvents=1;shape=mxgraph.cisco19.rect;prIcon=router;fillColor=#EA6B66;strokeColor=#005073;" parent="1" vertex="1">
          <mxGeometry x="961.29" y="395" width="50" height="50" as="geometry" />
        </mxCell>
        <mxCell id="1vF6z5qYPoborKcWA8Q8-38" value="" style="sketch=0;points=[[0.5,0,0],[1,0.5,0],[0.5,1,0],[0,0.5,0],[0.145,0.145,0],[0.8555,0.145,0],[0.855,0.8555,0],[0.145,0.855,0]];verticalLabelPosition=bottom;html=1;verticalAlign=top;aspect=fixed;align=center;pointerEvents=1;shape=mxgraph.cisco19.rect;prIcon=router;fillColor=#EA6B66;strokeColor=#005073;" parent="1" vertex="1">
          <mxGeometry x="997" y="210" width="50" height="50" as="geometry" />
        </mxCell>
        <mxCell id="1vF6z5qYPoborKcWA8Q8-39" value="" style="sketch=0;points=[[0.015,0.015,0],[0.985,0.015,0],[0.985,0.985,0],[0.015,0.985,0],[0.25,0,0],[0.5,0,0],[0.75,0,0],[1,0.25,0],[1,0.5,0],[1,0.75,0],[0.75,1,0],[0.5,1,0],[0.25,1,0],[0,0.75,0],[0,0.5,0],[0,0.25,0]];verticalLabelPosition=bottom;html=1;verticalAlign=top;aspect=fixed;align=center;pointerEvents=1;shape=mxgraph.cisco19.rect;prIcon=l2_switch;fillColor=#FF99FF;strokeColor=#005073;" parent="1" vertex="1">
          <mxGeometry x="1448.35" y="135" width="50" height="50" as="geometry" />
        </mxCell>
        <mxCell id="1vF6z5qYPoborKcWA8Q8-40" value="&lt;b&gt;WAN&lt;/b&gt;&lt;div&gt;&lt;b&gt;172.16.1.21&lt;/b&gt;&lt;/div&gt;" style="image;html=1;image=img/lib/clip_art/networking/Firewall_02_128x128.png" parent="1" vertex="1">
          <mxGeometry x="91.01" y="-156" width="60" height="60" as="geometry" />
        </mxCell>
        <mxCell id="1vF6z5qYPoborKcWA8Q8-44" value="WAN&lt;div&gt;172.16.1.22&lt;/div&gt;" style="image;html=1;image=img/lib/clip_art/networking/Firewall_02_128x128.png;fontStyle=1" parent="1" vertex="1">
          <mxGeometry x="221.01" y="-156" width="60" height="60" as="geometry" />
        </mxCell>
        <mxCell id="1vF6z5qYPoborKcWA8Q8-47" value="&lt;b&gt;WAN&lt;/b&gt;&lt;br&gt;&lt;div style=&quot;border-color: var(--border-color);&quot;&gt;&lt;b style=&quot;border-color: var(--border-color);&quot;&gt;172.16.2.21&lt;/b&gt;&lt;/div&gt;" style="image;html=1;image=img/lib/clip_art/networking/Firewall_02_128x128.png" parent="1" vertex="1">
          <mxGeometry x="-504.21999999999997" y="-186.00000000000003" width="60" height="60" as="geometry" />
        </mxCell>
        <mxCell id="1vF6z5qYPoborKcWA8Q8-48" value="&lt;b&gt;WAN&lt;/b&gt;&lt;br&gt;&lt;div&gt;&lt;div style=&quot;border-color: var(--border-color);&quot;&gt;&lt;b style=&quot;border-color: var(--border-color);&quot;&gt;172.16.2.22&lt;/b&gt;&lt;/div&gt;&lt;/div&gt;" style="image;html=1;image=img/lib/clip_art/networking/Firewall_02_128x128.png" parent="1" vertex="1">
          <mxGeometry x="-228.22" y="-230.29" width="60" height="60" as="geometry" />
        </mxCell>
        <mxCell id="1vF6z5qYPoborKcWA8Q8-49" value="&lt;b&gt;WAN&lt;/b&gt;&lt;br&gt;&lt;div style=&quot;border-color: var(--border-color);&quot;&gt;&lt;b style=&quot;border-color: var(--border-color);&quot;&gt;172.16.3.21&lt;/b&gt;&lt;/div&gt;" style="image;html=1;image=img/lib/clip_art/networking/Firewall_02_128x128.png" parent="1" vertex="1">
          <mxGeometry x="-635.93" y="160" width="60" height="60" as="geometry" />
        </mxCell>
        <mxCell id="1vF6z5qYPoborKcWA8Q8-50" value="&lt;b&gt;WAN&lt;/b&gt;&lt;br&gt;&lt;div style=&quot;border-color: var(--border-color);&quot;&gt;&lt;b style=&quot;border-color: var(--border-color);&quot;&gt;172.16.3.22&lt;/b&gt;&lt;/div&gt;" style="image;html=1;image=img/lib/clip_art/networking/Firewall_02_128x128.png" parent="1" vertex="1">
          <mxGeometry x="-559.0400000000001" y="-21" width="60" height="60" as="geometry" />
        </mxCell>
        <mxCell id="1vF6z5qYPoborKcWA8Q8-51" value="&lt;b&gt;WAN&lt;/b&gt;&lt;br&gt;&lt;div style=&quot;border-color: var(--border-color);&quot;&gt;&lt;b style=&quot;border-color: var(--border-color);&quot;&gt;172.16.16.22&lt;/b&gt;&lt;/div&gt;" style="image;html=1;image=img/lib/clip_art/networking/Firewall_02_128x128.png;labelPosition=right;verticalLabelPosition=middle;align=left;verticalAlign=middle;" parent="1" vertex="1">
          <mxGeometry x="-596" y="260" width="60" height="60" as="geometry" />
        </mxCell>
        <mxCell id="1vF6z5qYPoborKcWA8Q8-52" value="&lt;b&gt;WAN&lt;/b&gt;&lt;br&gt;&lt;div style=&quot;border-color: var(--border-color);&quot;&gt;&lt;b style=&quot;border-color: var(--border-color);&quot;&gt;172.16.16.21&lt;/b&gt;&lt;/div&gt;" style="image;html=1;image=img/lib/clip_art/networking/Firewall_02_128x128.png;labelPosition=right;verticalLabelPosition=middle;align=left;verticalAlign=middle;" parent="1" vertex="1">
          <mxGeometry x="-590.5" y="400" width="60" height="60" as="geometry" />
        </mxCell>
        <mxCell id="1vF6z5qYPoborKcWA8Q8-53" value="&lt;b&gt;WAN&lt;/b&gt;&lt;br&gt;&lt;div style=&quot;border-color: var(--border-color);&quot;&gt;&lt;b style=&quot;border-color: var(--border-color);&quot;&gt;172.16.6.21&lt;/b&gt;&lt;/div&gt;" style="image;html=1;image=img/lib/clip_art/networking/Firewall_02_128x128.png;labelPosition=center;verticalLabelPosition=top;align=center;verticalAlign=bottom;" parent="1" vertex="1">
          <mxGeometry x="-489.99999999999994" y="492" width="60" height="60" as="geometry" />
        </mxCell>
        <mxCell id="1vF6z5qYPoborKcWA8Q8-54" value="&lt;b&gt;WAN&lt;/b&gt;&lt;br&gt;&lt;div style=&quot;border-color: var(--border-color);&quot;&gt;&lt;b style=&quot;border-color: var(--border-color);&quot;&gt;172.16.6.22&lt;/b&gt;&lt;/div&gt;" style="image;html=1;image=img/lib/clip_art/networking/Firewall_02_128x128.png;labelPosition=center;verticalLabelPosition=top;align=center;verticalAlign=bottom;" parent="1" vertex="1">
          <mxGeometry x="-377.03999999999996" y="595" width="60" height="60" as="geometry" />
        </mxCell>
        <mxCell id="1vF6z5qYPoborKcWA8Q8-55" value="&lt;b&gt;WAN&lt;/b&gt;&lt;br&gt;&lt;div style=&quot;border-color: var(--border-color);&quot;&gt;&lt;b style=&quot;border-color: var(--border-color);&quot;&gt;172.16.5.21&lt;/b&gt;&lt;/div&gt;" style="image;html=1;image=img/lib/clip_art/networking/Firewall_02_128x128.png;labelPosition=center;verticalLabelPosition=top;align=center;verticalAlign=bottom;" parent="1" vertex="1">
          <mxGeometry x="-220" y="639" width="60" height="60" as="geometry" />
        </mxCell>
        <mxCell id="1vF6z5qYPoborKcWA8Q8-56" value="&lt;b&gt;WAN&lt;/b&gt;&lt;br&gt;&lt;div style=&quot;border-color: var(--border-color);&quot;&gt;&lt;b style=&quot;border-color: var(--border-color);&quot;&gt;172.16.5.22&lt;/b&gt;&lt;/div&gt;" style="image;html=1;image=img/lib/clip_art/networking/Firewall_02_128x128.png;labelPosition=center;verticalLabelPosition=top;align=center;verticalAlign=bottom;" parent="1" vertex="1">
          <mxGeometry x="-80" y="639" width="60" height="60" as="geometry" />
        </mxCell>
        <mxCell id="1vF6z5qYPoborKcWA8Q8-57" value="&lt;b&gt;WAN&lt;/b&gt;&lt;br&gt;&lt;div style=&quot;border-color: var(--border-color);&quot;&gt;&lt;b style=&quot;border-color: var(--border-color);&quot;&gt;172.16.4.21&lt;/b&gt;&lt;/div&gt;" style="image;html=1;image=img/lib/clip_art/networking/Firewall_02_128x128.png;labelPosition=center;verticalLabelPosition=top;align=center;verticalAlign=bottom;" parent="1" vertex="1">
          <mxGeometry x="70.00000000000001" y="551" width="60" height="60" as="geometry" />
        </mxCell>
        <mxCell id="1vF6z5qYPoborKcWA8Q8-58" value="&lt;b&gt;WAN&lt;/b&gt;&lt;br&gt;&lt;div style=&quot;border-color: var(--border-color);&quot;&gt;&lt;b style=&quot;border-color: var(--border-color);&quot;&gt;172.16.4.22&lt;/b&gt;&lt;/div&gt;" style="image;html=1;image=img/lib/clip_art/networking/Firewall_02_128x128.png;labelPosition=center;verticalLabelPosition=top;align=center;verticalAlign=bottom;" parent="1" vertex="1">
          <mxGeometry x="208.02" y="455" width="60" height="60" as="geometry" />
        </mxCell>
        <mxCell id="1vF6z5qYPoborKcWA8Q8-61" value="" style="endArrow=none;html=1;rounded=0;exitX=0.625;exitY=0.2;exitDx=0;exitDy=0;exitPerimeter=0;entryX=0.5;entryY=1;entryDx=0;entryDy=0;entryPerimeter=0;fillColor=#7F00FF;strokeColor=#808080;" parent="1" source="1vF6z5qYPoborKcWA8Q8-3" target="1vF6z5qYPoborKcWA8Q8-23" edge="1">
          <mxGeometry width="50" height="50" relative="1" as="geometry">
            <mxPoint x="180" y="90" as="sourcePoint" />
            <mxPoint x="230" y="40" as="targetPoint" />
          </mxGeometry>
        </mxCell>
        <mxCell id="1vF6z5qYPoborKcWA8Q8-68" value="" style="endArrow=none;html=1;rounded=0;strokeColor=#808080;align=center;verticalAlign=middle;fontFamily=Helvetica;fontSize=11;fontColor=default;labelBackgroundColor=default;edgeStyle=orthogonalEdgeStyle;exitX=1;exitY=0.5;exitDx=0;exitDy=0;entryX=0;entryY=0.5;entryDx=0;entryDy=0;" parent="1" source="1vF6z5qYPoborKcWA8Q8-40" target="1vF6z5qYPoborKcWA8Q8-44" edge="1">
          <mxGeometry width="50" height="50" relative="1" as="geometry">
            <mxPoint x="180" y="100" as="sourcePoint" />
            <mxPoint x="230" y="50" as="targetPoint" />
          </mxGeometry>
        </mxCell>
        <mxCell id="1vF6z5qYPoborKcWA8Q8-71" value="" style="endArrow=none;html=1;rounded=0;strokeColor=#808080;align=center;verticalAlign=middle;fontFamily=Helvetica;fontSize=11;fontColor=default;labelBackgroundColor=default;exitX=0.5;exitY=0;exitDx=0;exitDy=0;entryX=0.25;entryY=1;entryDx=0;entryDy=0;entryPerimeter=0;" parent="1" source="1vF6z5qYPoborKcWA8Q8-40" target="1vF6z5qYPoborKcWA8Q8-22" edge="1">
          <mxGeometry width="50" height="50" relative="1" as="geometry">
            <mxPoint x="10" y="-10" as="sourcePoint" />
            <mxPoint x="80" y="-10" as="targetPoint" />
          </mxGeometry>
        </mxCell>
        <mxCell id="1vF6z5qYPoborKcWA8Q8-72" value="" style="endArrow=none;html=1;rounded=0;strokeColor=#808080;align=center;verticalAlign=middle;fontFamily=Helvetica;fontSize=11;fontColor=default;labelBackgroundColor=default;exitX=0.5;exitY=0;exitDx=0;exitDy=0;entryX=0.75;entryY=1;entryDx=0;entryDy=0;entryPerimeter=0;" parent="1" source="1vF6z5qYPoborKcWA8Q8-44" target="1vF6z5qYPoborKcWA8Q8-22" edge="1">
          <mxGeometry width="50" height="50" relative="1" as="geometry">
            <mxPoint x="-20" y="-40" as="sourcePoint" />
            <mxPoint x="33" y="-100" as="targetPoint" />
          </mxGeometry>
        </mxCell>
        <mxCell id="1vF6z5qYPoborKcWA8Q8-73" value="" style="endArrow=none;html=1;rounded=0;exitX=0.5;exitY=0;exitDx=0;exitDy=0;exitPerimeter=0;entryX=0.5;entryY=1;entryDx=0;entryDy=0;entryPerimeter=0;strokeColor=#808080;" parent="1" source="1vF6z5qYPoborKcWA8Q8-31" target="1vF6z5qYPoborKcWA8Q8-24" edge="1">
          <mxGeometry width="50" height="50" relative="1" as="geometry">
            <mxPoint x="-14" y="252" as="sourcePoint" />
            <mxPoint x="25" y="140" as="targetPoint" />
          </mxGeometry>
        </mxCell>
        <mxCell id="1vF6z5qYPoborKcWA8Q8-74" value="" style="endArrow=none;html=1;rounded=0;exitX=0;exitY=0.25;exitDx=0;exitDy=0;exitPerimeter=0;entryX=0.855;entryY=0.8555;entryDx=0;entryDy=0;entryPerimeter=0;strokeColor=#808080;" parent="1" source="1vF6z5qYPoborKcWA8Q8-31" target="1vF6z5qYPoborKcWA8Q8-25" edge="1">
          <mxGeometry width="50" height="50" relative="1" as="geometry">
            <mxPoint x="-4" y="262" as="sourcePoint" />
            <mxPoint x="35" y="150" as="targetPoint" />
          </mxGeometry>
        </mxCell>
        <mxCell id="1vF6z5qYPoborKcWA8Q8-75" value="" style="endArrow=none;html=1;rounded=0;exitX=1;exitY=0.5;exitDx=0;exitDy=0;exitPerimeter=0;entryX=0;entryY=0.5;entryDx=0;entryDy=0;entryPerimeter=0;strokeColor=#808080;" parent="1" source="1vF6z5qYPoborKcWA8Q8-25" target="1vF6z5qYPoborKcWA8Q8-24" edge="1">
          <mxGeometry width="50" height="50" relative="1" as="geometry">
            <mxPoint x="-8.219999999999992" y="165.99999999999997" as="sourcePoint" />
            <mxPoint x="30.78" y="53.99999999999999" as="targetPoint" />
          </mxGeometry>
        </mxCell>
        <mxCell id="1vF6z5qYPoborKcWA8Q8-78" value="" style="endArrow=none;html=1;rounded=0;exitX=0;exitY=0.75;exitDx=0;exitDy=0;entryX=1;entryY=0.5;entryDx=0;entryDy=0;strokeColor=#808080;" parent="1" source="1vF6z5qYPoborKcWA8Q8-48" target="1vF6z5qYPoborKcWA8Q8-47" edge="1">
          <mxGeometry width="50" height="50" relative="1" as="geometry">
            <mxPoint x="-247.22" y="0.9999999999999929" as="sourcePoint" />
            <mxPoint x="-289.22" y="-86" as="targetPoint" />
          </mxGeometry>
        </mxCell>
        <mxCell id="1vF6z5qYPoborKcWA8Q8-79" value="" style="endArrow=none;html=1;rounded=0;exitX=0.25;exitY=1;exitDx=0;exitDy=0;entryX=0.5;entryY=0;entryDx=0;entryDy=0;exitPerimeter=0;strokeColor=#808080;" parent="1" source="1vF6z5qYPoborKcWA8Q8-16" target="1vF6z5qYPoborKcWA8Q8-47" edge="1">
          <mxGeometry width="50" height="50" relative="1" as="geometry">
            <mxPoint x="-224.22" y="-131" as="sourcePoint" />
            <mxPoint x="-274.22" y="-116" as="targetPoint" />
          </mxGeometry>
        </mxCell>
        <mxCell id="1vF6z5qYPoborKcWA8Q8-80" value="" style="endArrow=none;html=1;rounded=0;exitX=1;exitY=0.75;exitDx=0;exitDy=0;entryX=0.5;entryY=0;entryDx=0;entryDy=0;exitPerimeter=0;strokeColor=#808080;" parent="1" source="1vF6z5qYPoborKcWA8Q8-16" target="1vF6z5qYPoborKcWA8Q8-48" edge="1">
          <mxGeometry width="50" height="50" relative="1" as="geometry">
            <mxPoint x="-278.22" y="-206.00000000000003" as="sourcePoint" />
            <mxPoint x="-304.22" y="-146" as="targetPoint" />
          </mxGeometry>
        </mxCell>
        <mxCell id="1vF6z5qYPoborKcWA8Q8-83" value="" style="endArrow=none;html=1;rounded=0;exitX=0.113;exitY=0.32;exitDx=0;exitDy=0;exitPerimeter=0;entryX=0.99;entryY=0.671;entryDx=0;entryDy=0;entryPerimeter=0;strokeColor=#808080;" parent="1" source="1vF6z5qYPoborKcWA8Q8-3" target="1vF6z5qYPoborKcWA8Q8-26" edge="1">
          <mxGeometry width="50" height="50" relative="1" as="geometry">
            <mxPoint x="-90" y="230" as="sourcePoint" />
            <mxPoint x="-197" y="143" as="targetPoint" />
          </mxGeometry>
        </mxCell>
        <mxCell id="1vF6z5qYPoborKcWA8Q8-86" value="" style="endArrow=none;html=1;rounded=0;exitX=1;exitY=0.25;exitDx=0;exitDy=0;entryX=0.5;entryY=1;entryDx=0;entryDy=0;strokeColor=#808080;" parent="1" source="1vF6z5qYPoborKcWA8Q8-49" target="1vF6z5qYPoborKcWA8Q8-50" edge="1">
          <mxGeometry width="50" height="50" relative="1" as="geometry">
            <mxPoint x="-658.1499999999999" y="39.71000000000003" as="sourcePoint" />
            <mxPoint x="-572.3100000000002" y="-31.000000000000007" as="targetPoint" />
          </mxGeometry>
        </mxCell>
        <mxCell id="1vF6z5qYPoborKcWA8Q8-87" value="" style="endArrow=none;html=1;rounded=0;exitX=0;exitY=0.5;exitDx=0;exitDy=0;entryX=1;entryY=0.5;entryDx=0;entryDy=0;strokeColor=#808080;exitPerimeter=0;" parent="1" source="I3AutPQepK493rPZeZ-E-57" target="1vF6z5qYPoborKcWA8Q8-49" edge="1">
          <mxGeometry width="50" height="50" relative="1" as="geometry">
            <mxPoint x="-499.3899999999999" y="242.00000000000003" as="sourcePoint" />
            <mxPoint x="-530.5" y="202.00000000000003" as="targetPoint" />
          </mxGeometry>
        </mxCell>
        <mxCell id="1vF6z5qYPoborKcWA8Q8-88" value="" style="endArrow=none;html=1;rounded=0;exitX=0;exitY=0.5;exitDx=0;exitDy=0;entryX=1;entryY=0.75;entryDx=0;entryDy=0;entryPerimeter=0;strokeColor=#808080;exitPerimeter=0;" parent="1" source="1vF6z5qYPoborKcWA8Q8-26" target="I3AutPQepK493rPZeZ-E-57" edge="1">
          <mxGeometry width="50" height="50" relative="1" as="geometry">
            <mxPoint x="-572.3100000000002" y="-61.00000000000001" as="sourcePoint" />
            <mxPoint x="-721.76" y="-25.28999999999997" as="targetPoint" />
          </mxGeometry>
        </mxCell>
        <mxCell id="1vF6z5qYPoborKcWA8Q8-89" value="" style="endArrow=none;html=1;rounded=0;exitX=0.16;exitY=0.55;exitDx=0;exitDy=0;exitPerimeter=0;entryX=1;entryY=0.5;entryDx=0;entryDy=0;entryPerimeter=0;strokeColor=#808080;" parent="1" source="1vF6z5qYPoborKcWA8Q8-3" target="1vF6z5qYPoborKcWA8Q8-27" edge="1">
          <mxGeometry width="50" height="50" relative="1" as="geometry">
            <mxPoint x="-118" y="262" as="sourcePoint" />
            <mxPoint x="-330" y="184" as="targetPoint" />
          </mxGeometry>
        </mxCell>
        <mxCell id="1vF6z5qYPoborKcWA8Q8-93" value="" style="endArrow=none;html=1;rounded=0;exitX=0.5;exitY=0;exitDx=0;exitDy=0;entryX=0.5;entryY=1;entryDx=0;entryDy=0;strokeColor=#808080;" parent="1" source="1vF6z5qYPoborKcWA8Q8-52" target="1vF6z5qYPoborKcWA8Q8-51" edge="1">
          <mxGeometry width="50" height="50" relative="1" as="geometry">
            <mxPoint x="-400" y="365" as="sourcePoint" />
            <mxPoint x="-313" y="313" as="targetPoint" />
          </mxGeometry>
        </mxCell>
        <mxCell id="1vF6z5qYPoborKcWA8Q8-94" value="" style="endArrow=none;html=1;rounded=0;exitX=0;exitY=0.75;exitDx=0;exitDy=0;entryX=0.985;entryY=0.015;entryDx=0;entryDy=0;entryPerimeter=0;strokeColor=#808080;" parent="1" source="1vF6z5qYPoborKcWA8Q8-51" target="1vF6z5qYPoborKcWA8Q8-18" edge="1">
          <mxGeometry width="50" height="50" relative="1" as="geometry">
            <mxPoint x="-430" y="350" as="sourcePoint" />
            <mxPoint x="-440" y="290" as="targetPoint" />
          </mxGeometry>
        </mxCell>
        <mxCell id="1vF6z5qYPoborKcWA8Q8-95" value="" style="endArrow=none;html=1;rounded=0;exitX=0;exitY=0.25;exitDx=0;exitDy=0;entryX=1;entryY=0.75;entryDx=0;entryDy=0;entryPerimeter=0;strokeColor=#808080;" parent="1" source="1vF6z5qYPoborKcWA8Q8-52" target="1vF6z5qYPoborKcWA8Q8-18" edge="1">
          <mxGeometry width="50" height="50" relative="1" as="geometry">
            <mxPoint x="-470" y="275" as="sourcePoint" />
            <mxPoint x="-521" y="311" as="targetPoint" />
          </mxGeometry>
        </mxCell>
        <mxCell id="1vF6z5qYPoborKcWA8Q8-96" value="" style="endArrow=none;html=1;rounded=0;exitX=0.13;exitY=0.77;exitDx=0;exitDy=0;exitPerimeter=0;entryX=0.8555;entryY=0.145;entryDx=0;entryDy=0;entryPerimeter=0;strokeColor=#808080;" parent="1" source="1vF6z5qYPoborKcWA8Q8-3" target="1vF6z5qYPoborKcWA8Q8-28" edge="1">
          <mxGeometry width="50" height="50" relative="1" as="geometry">
            <mxPoint x="-108" y="292" as="sourcePoint" />
            <mxPoint x="-270" y="295" as="targetPoint" />
          </mxGeometry>
        </mxCell>
        <mxCell id="1vF6z5qYPoborKcWA8Q8-99" value="" style="endArrow=none;html=1;rounded=0;strokeColor=#808080;" parent="1" source="1vF6z5qYPoborKcWA8Q8-54" target="1vF6z5qYPoborKcWA8Q8-53" edge="1">
          <mxGeometry width="50" height="50" relative="1" as="geometry">
            <mxPoint x="-265" y="450" as="sourcePoint" />
            <mxPoint x="-290" y="515" as="targetPoint" />
          </mxGeometry>
        </mxCell>
        <mxCell id="1vF6z5qYPoborKcWA8Q8-102" value="" style="endArrow=none;html=1;rounded=0;exitX=0.25;exitY=0;exitDx=0;exitDy=0;exitPerimeter=0;entryX=0;entryY=1;entryDx=0;entryDy=0;strokeColor=#808080;" parent="1" source="1vF6z5qYPoborKcWA8Q8-19" target="1vF6z5qYPoborKcWA8Q8-53" edge="1">
          <mxGeometry width="50" height="50" relative="1" as="geometry">
            <mxPoint x="-265" y="450" as="sourcePoint" />
            <mxPoint x="-290" y="515" as="targetPoint" />
          </mxGeometry>
        </mxCell>
        <mxCell id="1vF6z5qYPoborKcWA8Q8-103" value="" style="endArrow=none;html=1;rounded=0;exitX=1;exitY=0.25;exitDx=0;exitDy=0;exitPerimeter=0;entryX=0;entryY=1;entryDx=0;entryDy=0;strokeColor=#808080;" parent="1" source="1vF6z5qYPoborKcWA8Q8-19" target="1vF6z5qYPoborKcWA8Q8-54" edge="1">
          <mxGeometry width="50" height="50" relative="1" as="geometry">
            <mxPoint x="-410" y="580" as="sourcePoint" />
            <mxPoint x="-400" y="520" as="targetPoint" />
          </mxGeometry>
        </mxCell>
        <mxCell id="1vF6z5qYPoborKcWA8Q8-104" value="" style="endArrow=none;html=1;rounded=0;exitX=0.31;exitY=0.8;exitDx=0;exitDy=0;exitPerimeter=0;entryX=0.5;entryY=0;entryDx=0;entryDy=0;entryPerimeter=0;strokeColor=#808080;" parent="1" source="1vF6z5qYPoborKcWA8Q8-3" target="1vF6z5qYPoborKcWA8Q8-29" edge="1">
          <mxGeometry width="50" height="50" relative="1" as="geometry">
            <mxPoint x="-114" y="320" as="sourcePoint" />
            <mxPoint x="-247" y="407" as="targetPoint" />
          </mxGeometry>
        </mxCell>
        <mxCell id="1vF6z5qYPoborKcWA8Q8-107" value="" style="endArrow=none;html=1;rounded=0;exitX=0;exitY=0.75;exitDx=0;exitDy=0;entryX=1;entryY=0.75;entryDx=0;entryDy=0;strokeColor=#808080;" parent="1" source="1vF6z5qYPoborKcWA8Q8-56" target="1vF6z5qYPoborKcWA8Q8-55" edge="1">
          <mxGeometry width="50" height="50" relative="1" as="geometry">
            <mxPoint x="-103" y="463" as="sourcePoint" />
            <mxPoint x="-145" y="530" as="targetPoint" />
          </mxGeometry>
        </mxCell>
        <mxCell id="1vF6z5qYPoborKcWA8Q8-108" value="" style="endArrow=none;html=1;rounded=0;exitX=0.015;exitY=0.015;exitDx=0;exitDy=0;entryX=0.5;entryY=1;entryDx=0;entryDy=0;exitPerimeter=0;strokeColor=#808080;" parent="1" source="1vF6z5qYPoborKcWA8Q8-20" target="1vF6z5qYPoborKcWA8Q8-55" edge="1">
          <mxGeometry width="50" height="50" relative="1" as="geometry">
            <mxPoint x="-70" y="575" as="sourcePoint" />
            <mxPoint x="-130" y="575" as="targetPoint" />
          </mxGeometry>
        </mxCell>
        <mxCell id="1vF6z5qYPoborKcWA8Q8-109" value="" style="endArrow=none;html=1;rounded=0;exitX=0.8;exitY=0.163;exitDx=0;exitDy=0;entryX=0.5;entryY=1;entryDx=0;entryDy=0;exitPerimeter=0;strokeColor=#808080;" parent="1" source="1vF6z5qYPoborKcWA8Q8-20" target="1vF6z5qYPoborKcWA8Q8-56" edge="1">
          <mxGeometry width="50" height="50" relative="1" as="geometry">
            <mxPoint x="-124" y="666" as="sourcePoint" />
            <mxPoint x="-160" y="590" as="targetPoint" />
          </mxGeometry>
        </mxCell>
        <mxCell id="1vF6z5qYPoborKcWA8Q8-110" value="" style="endArrow=none;html=1;rounded=0;exitX=0.8;exitY=0.8;exitDx=0;exitDy=0;exitPerimeter=0;entryX=0.5;entryY=0;entryDx=0;entryDy=0;entryPerimeter=0;strokeColor=#808080;" parent="1" source="1vF6z5qYPoborKcWA8Q8-3" target="1vF6z5qYPoborKcWA8Q8-30" edge="1">
          <mxGeometry width="50" height="50" relative="1" as="geometry">
            <mxPoint x="-78" y="324" as="sourcePoint" />
            <mxPoint x="-85" y="420" as="targetPoint" />
          </mxGeometry>
        </mxCell>
        <mxCell id="1vF6z5qYPoborKcWA8Q8-113" value="" style="endArrow=none;html=1;rounded=0;exitX=0;exitY=1;exitDx=0;exitDy=0;entryX=1;entryY=0;entryDx=0;entryDy=0;strokeColor=#808080;" parent="1" source="1vF6z5qYPoborKcWA8Q8-58" target="1vF6z5qYPoborKcWA8Q8-57" edge="1">
          <mxGeometry width="50" height="50" relative="1" as="geometry">
            <mxPoint x="160" y="410" as="sourcePoint" />
            <mxPoint x="70" y="395" as="targetPoint" />
          </mxGeometry>
        </mxCell>
        <mxCell id="1vF6z5qYPoborKcWA8Q8-114" value="" style="endArrow=none;html=1;rounded=0;exitX=0.5;exitY=1;exitDx=0;exitDy=0;entryX=0.5;entryY=0;entryDx=0;entryDy=0;entryPerimeter=0;strokeColor=#808080;" parent="1" source="1vF6z5qYPoborKcWA8Q8-58" target="1vF6z5qYPoborKcWA8Q8-21" edge="1">
          <mxGeometry width="50" height="50" relative="1" as="geometry">
            <mxPoint x="160" y="455" as="sourcePoint" />
            <mxPoint x="120" y="475" as="targetPoint" />
          </mxGeometry>
        </mxCell>
        <mxCell id="1vF6z5qYPoborKcWA8Q8-115" value="" style="endArrow=none;html=1;rounded=0;entryX=0;entryY=0.5;entryDx=0;entryDy=0;entryPerimeter=0;strokeColor=#808080;" parent="1" source="1vF6z5qYPoborKcWA8Q8-57" target="1vF6z5qYPoborKcWA8Q8-21" edge="1">
          <mxGeometry width="50" height="50" relative="1" as="geometry">
            <mxPoint x="190" y="455" as="sourcePoint" />
            <mxPoint x="193" y="540" as="targetPoint" />
          </mxGeometry>
        </mxCell>
        <mxCell id="1vF6z5qYPoborKcWA8Q8-117" value="&lt;b&gt;WAN&lt;/b&gt;&lt;br&gt;&lt;div style=&quot;border-color: var(--border-color);&quot;&gt;&lt;b style=&quot;border-color: var(--border-color);&quot;&gt;172.16.12.21&lt;/b&gt;&lt;/div&gt;" style="image;html=1;image=img/lib/clip_art/networking/Firewall_02_128x128.png;labelPosition=center;verticalLabelPosition=top;align=center;verticalAlign=bottom;" parent="1" vertex="1">
          <mxGeometry x="630" y="673" width="60" height="60" as="geometry" />
        </mxCell>
        <mxCell id="1vF6z5qYPoborKcWA8Q8-118" value="&lt;b&gt;WAN&lt;/b&gt;&lt;br&gt;&lt;div style=&quot;border-color: var(--border-color);&quot;&gt;&lt;b style=&quot;border-color: var(--border-color);&quot;&gt;172.16.12.22&lt;/b&gt;&lt;/div&gt;" style="image;html=1;image=img/lib/clip_art/networking/Firewall_02_128x128.png;labelPosition=center;verticalLabelPosition=top;align=center;verticalAlign=bottom;" parent="1" vertex="1">
          <mxGeometry x="827.91" y="673" width="60" height="60" as="geometry" />
        </mxCell>
        <mxCell id="1vF6z5qYPoborKcWA8Q8-119" value="&lt;b&gt;WAN&lt;/b&gt;&lt;br&gt;&lt;div style=&quot;border-color: var(--border-color);&quot;&gt;&lt;b style=&quot;border-color: var(--border-color);&quot;&gt;172.16.11.21&lt;/b&gt;&lt;/div&gt;" style="image;html=1;image=img/lib/clip_art/networking/Firewall_02_128x128.png;labelPosition=center;verticalLabelPosition=top;align=center;verticalAlign=bottom;" parent="1" vertex="1">
          <mxGeometry x="1140" y="588" width="60" height="60" as="geometry" />
        </mxCell>
        <mxCell id="1vF6z5qYPoborKcWA8Q8-120" value="&lt;b&gt;WAN&lt;/b&gt;&lt;br&gt;&lt;div style=&quot;border-color: var(--border-color);&quot;&gt;&lt;b style=&quot;border-color: var(--border-color);&quot;&gt;172.16.11.22&lt;/b&gt;&lt;/div&gt;" style="image;html=1;image=img/lib/clip_art/networking/Firewall_02_128x128.png;labelPosition=center;verticalLabelPosition=top;align=center;verticalAlign=bottom;" parent="1" vertex="1">
          <mxGeometry x="1269.93" y="480" width="60" height="60" as="geometry" />
        </mxCell>
        <mxCell id="1vF6z5qYPoborKcWA8Q8-121" value="&lt;b&gt;WAN&lt;/b&gt;&lt;br&gt;&lt;div style=&quot;border-color: var(--border-color);&quot;&gt;&lt;b style=&quot;border-color: var(--border-color);&quot;&gt;172.16.10.21&lt;/b&gt;&lt;/div&gt;" style="image;html=1;image=img/lib/clip_art/networking/Firewall_02_128x128.png;labelPosition=left;verticalLabelPosition=middle;align=right;verticalAlign=middle;" parent="1" vertex="1">
          <mxGeometry x="1307.35" y="240" width="60" height="60" as="geometry" />
        </mxCell>
        <mxCell id="1vF6z5qYPoborKcWA8Q8-122" value="&lt;b&gt;WAN&lt;/b&gt;&lt;br&gt;&lt;div style=&quot;border-color: var(--border-color);&quot;&gt;&lt;b style=&quot;border-color: var(--border-color);&quot;&gt;172.16.10.22&lt;/b&gt;&lt;/div&gt;" style="image;html=1;image=img/lib/clip_art/networking/Firewall_02_128x128.png;labelPosition=left;verticalLabelPosition=middle;align=right;verticalAlign=middle;" parent="1" vertex="1">
          <mxGeometry x="1287.35" y="85" width="60" height="60" as="geometry" />
        </mxCell>
        <mxCell id="1vF6z5qYPoborKcWA8Q8-123" value="" style="endArrow=none;html=1;rounded=0;exitX=0.25;exitY=0.25;exitDx=0;exitDy=0;exitPerimeter=0;entryX=0.8;entryY=0.8;entryDx=0;entryDy=0;entryPerimeter=0;strokeColor=#808080;" parent="1" source="1vF6z5qYPoborKcWA8Q8-4" target="1vF6z5qYPoborKcWA8Q8-1" edge="1">
          <mxGeometry width="50" height="50" relative="1" as="geometry">
            <mxPoint x="35" y="285" as="sourcePoint" />
            <mxPoint x="321" y="159" as="targetPoint" />
          </mxGeometry>
        </mxCell>
        <mxCell id="1vF6z5qYPoborKcWA8Q8-124" value="" style="endArrow=none;html=1;rounded=0;exitX=0.015;exitY=0.985;exitDx=0;exitDy=0;exitPerimeter=0;entryX=0.684;entryY=-0.038;entryDx=0;entryDy=0;entryPerimeter=0;strokeColor=#808080;" parent="1" source="1vF6z5qYPoborKcWA8Q8-32" target="1vF6z5qYPoborKcWA8Q8-33" edge="1">
          <mxGeometry width="50" height="50" relative="1" as="geometry">
            <mxPoint x="770" y="263" as="sourcePoint" />
            <mxPoint x="652" y="124" as="targetPoint" />
          </mxGeometry>
        </mxCell>
        <mxCell id="1vF6z5qYPoborKcWA8Q8-125" value="" style="endArrow=none;html=1;rounded=0;exitX=0.75;exitY=1;exitDx=0;exitDy=0;exitPerimeter=0;entryX=0.5;entryY=0;entryDx=0;entryDy=0;entryPerimeter=0;strokeColor=#808080;" parent="1" source="1vF6z5qYPoborKcWA8Q8-32" target="1vF6z5qYPoborKcWA8Q8-34" edge="1">
          <mxGeometry width="50" height="50" relative="1" as="geometry">
            <mxPoint x="791" y="359" as="sourcePoint" />
            <mxPoint x="724" y="438" as="targetPoint" />
          </mxGeometry>
        </mxCell>
        <mxCell id="1vF6z5qYPoborKcWA8Q8-126" value="" style="endArrow=none;html=1;rounded=0;exitX=0;exitY=0.5;exitDx=0;exitDy=0;exitPerimeter=0;entryX=1;entryY=0.5;entryDx=0;entryDy=0;entryPerimeter=0;strokeColor=#808080;" parent="1" source="1vF6z5qYPoborKcWA8Q8-34" target="1vF6z5qYPoborKcWA8Q8-33" edge="1">
          <mxGeometry width="50" height="50" relative="1" as="geometry">
            <mxPoint x="820" y="360" as="sourcePoint" />
            <mxPoint x="835" y="440" as="targetPoint" />
          </mxGeometry>
        </mxCell>
        <mxCell id="1vF6z5qYPoborKcWA8Q8-129" value="" style="endArrow=none;html=1;rounded=0;entryX=1;entryY=0.5;entryDx=0;entryDy=0;exitX=0;exitY=0.5;exitDx=0;exitDy=0;strokeColor=#808080;" parent="1" source="1vF6z5qYPoborKcWA8Q8-118" target="1vF6z5qYPoborKcWA8Q8-117" edge="1">
          <mxGeometry width="50" height="50" relative="1" as="geometry">
            <mxPoint x="822" y="614" as="sourcePoint" />
            <mxPoint x="827" y="644" as="targetPoint" />
          </mxGeometry>
        </mxCell>
        <mxCell id="1vF6z5qYPoborKcWA8Q8-132" value="" style="endArrow=none;html=1;rounded=0;entryX=0.5;entryY=1;entryDx=0;entryDy=0;exitX=0.015;exitY=0.015;exitDx=0;exitDy=0;exitPerimeter=0;strokeColor=#808080;" parent="1" source="1vF6z5qYPoborKcWA8Q8-35" target="1vF6z5qYPoborKcWA8Q8-117" edge="1">
          <mxGeometry width="50" height="50" relative="1" as="geometry">
            <mxPoint x="797" y="674" as="sourcePoint" />
            <mxPoint x="737" y="674" as="targetPoint" />
          </mxGeometry>
        </mxCell>
        <mxCell id="1vF6z5qYPoborKcWA8Q8-133" value="" style="endArrow=none;html=1;rounded=0;entryX=0.25;entryY=1;entryDx=0;entryDy=0;exitX=0.985;exitY=0.015;exitDx=0;exitDy=0;exitPerimeter=0;strokeColor=#808080;" parent="1" source="1vF6z5qYPoborKcWA8Q8-35" target="1vF6z5qYPoborKcWA8Q8-118" edge="1">
          <mxGeometry width="50" height="50" relative="1" as="geometry">
            <mxPoint x="743" y="750" as="sourcePoint" />
            <mxPoint x="707" y="704" as="targetPoint" />
          </mxGeometry>
        </mxCell>
        <mxCell id="1vF6z5qYPoborKcWA8Q8-134" value="" style="endArrow=none;html=1;rounded=0;exitX=0.8;exitY=0.8;exitDx=0;exitDy=0;exitPerimeter=0;entryX=0.145;entryY=0.145;entryDx=0;entryDy=0;entryPerimeter=0;strokeColor=#808080;" parent="1" source="1vF6z5qYPoborKcWA8Q8-4" target="1vF6z5qYPoborKcWA8Q8-37" edge="1">
          <mxGeometry width="50" height="50" relative="1" as="geometry">
            <mxPoint x="791" y="359" as="sourcePoint" />
            <mxPoint x="724" y="438" as="targetPoint" />
          </mxGeometry>
        </mxCell>
        <mxCell id="1vF6z5qYPoborKcWA8Q8-137" value="" style="endArrow=none;html=1;rounded=0;entryX=0;entryY=0.5;entryDx=0;entryDy=0;entryPerimeter=0;strokeColor=#808080;" parent="1" source="1vF6z5qYPoborKcWA8Q8-119" target="1vF6z5qYPoborKcWA8Q8-36" edge="1">
          <mxGeometry width="50" height="50" relative="1" as="geometry">
            <mxPoint x="1219.93" y="606.5" as="sourcePoint" />
            <mxPoint x="1154.93" y="501.5" as="targetPoint" />
          </mxGeometry>
        </mxCell>
        <mxCell id="1vF6z5qYPoborKcWA8Q8-138" value="" style="endArrow=none;html=1;rounded=0;exitX=0.75;exitY=1;exitDx=0;exitDy=0;entryX=0.5;entryY=0;entryDx=0;entryDy=0;entryPerimeter=0;strokeColor=#808080;" parent="1" source="XgDQlMH6c-jidfkfwzLR-20" target="1vF6z5qYPoborKcWA8Q8-36" edge="1">
          <mxGeometry width="50" height="50" relative="1" as="geometry">
            <mxPoint x="1259.93" y="501.5" as="sourcePoint" />
            <mxPoint x="1179.93" y="476.5" as="targetPoint" />
          </mxGeometry>
        </mxCell>
        <mxCell id="1vF6z5qYPoborKcWA8Q8-139" value="" style="endArrow=none;html=1;rounded=0;exitX=0;exitY=1;exitDx=0;exitDy=0;strokeColor=#808080;" parent="1" source="1vF6z5qYPoborKcWA8Q8-120" target="1vF6z5qYPoborKcWA8Q8-119" edge="1">
          <mxGeometry width="50" height="50" relative="1" as="geometry">
            <mxPoint x="1304.93" y="546.5" as="sourcePoint" />
            <mxPoint x="1219.93" y="561.5" as="targetPoint" />
          </mxGeometry>
        </mxCell>
        <mxCell id="1vF6z5qYPoborKcWA8Q8-140" value="" style="endArrow=none;html=1;rounded=0;exitX=0.88;exitY=0.25;exitDx=0;exitDy=0;exitPerimeter=0;entryX=0;entryY=0.5;entryDx=0;entryDy=0;entryPerimeter=0;strokeColor=#808080;" parent="1" source="1vF6z5qYPoborKcWA8Q8-4" target="1vF6z5qYPoborKcWA8Q8-38" edge="1">
          <mxGeometry width="50" height="50" relative="1" as="geometry">
            <mxPoint x="881" y="334" as="sourcePoint" />
            <mxPoint x="957" y="397" as="targetPoint" />
          </mxGeometry>
        </mxCell>
        <mxCell id="1vF6z5qYPoborKcWA8Q8-143" value="" style="endArrow=none;html=1;rounded=0;exitX=0.5;exitY=1;exitDx=0;exitDy=0;entryX=0.25;entryY=0;entryDx=0;entryDy=0;strokeColor=#808080;" parent="1" source="1vF6z5qYPoborKcWA8Q8-122" target="1vF6z5qYPoborKcWA8Q8-121" edge="1">
          <mxGeometry width="50" height="50" relative="1" as="geometry">
            <mxPoint x="1257.35" y="238" as="sourcePoint" />
            <mxPoint x="1327.35" y="235" as="targetPoint" />
          </mxGeometry>
        </mxCell>
        <mxCell id="1vF6z5qYPoborKcWA8Q8-144" value="" style="endArrow=none;html=1;rounded=0;exitX=1;exitY=0.75;exitDx=0;exitDy=0;entryX=0.015;entryY=0.015;entryDx=0;entryDy=0;entryPerimeter=0;strokeColor=#808080;" parent="1" source="1vF6z5qYPoborKcWA8Q8-122" target="1vF6z5qYPoborKcWA8Q8-39" edge="1">
          <mxGeometry width="50" height="50" relative="1" as="geometry">
            <mxPoint x="1327.35" y="155" as="sourcePoint" />
            <mxPoint x="1332.35" y="250" as="targetPoint" />
          </mxGeometry>
        </mxCell>
        <mxCell id="1vF6z5qYPoborKcWA8Q8-145" value="" style="endArrow=none;html=1;rounded=0;exitX=1;exitY=0;exitDx=0;exitDy=0;entryX=0.25;entryY=1;entryDx=0;entryDy=0;entryPerimeter=0;strokeColor=#808080;" parent="1" source="1vF6z5qYPoborKcWA8Q8-121" target="1vF6z5qYPoborKcWA8Q8-39" edge="1">
          <mxGeometry width="50" height="50" relative="1" as="geometry">
            <mxPoint x="1357.35" y="140" as="sourcePoint" />
            <mxPoint x="1388.35" y="156" as="targetPoint" />
          </mxGeometry>
        </mxCell>
        <mxCell id="1vF6z5qYPoborKcWA8Q8-146" value="&lt;span style=&quot;font-size: 48px;&quot;&gt;&lt;b&gt;PARIS&lt;/b&gt;&lt;/span&gt;" style="shape=process;whiteSpace=wrap;html=1;backgroundOutline=1;fontFamily=Helvetica;fontSize=11;fontColor=default;labelBackgroundColor=default;fillColor=#E1D5E7;strokeColor=#E1D5E7;" parent="1" vertex="1">
          <mxGeometry x="-775.24" y="-870" width="267" height="80" as="geometry" />
        </mxCell>
        <mxCell id="1vF6z5qYPoborKcWA8Q8-156" value="&lt;b&gt;AD&lt;/b&gt;&lt;div&gt;&lt;b&gt;192.168.2.40&lt;/b&gt;&lt;/div&gt;" style="sketch=0;aspect=fixed;pointerEvents=1;shadow=0;dashed=0;html=1;strokeColor=none;labelPosition=center;verticalLabelPosition=bottom;verticalAlign=top;align=center;fillColor=#00188D;shape=mxgraph.mscae.enterprise.windows_server;fontFamily=Helvetica;fontSize=11;fontColor=default;labelBackgroundColor=default;" parent="1" vertex="1">
          <mxGeometry x="-633.22" y="-631" width="39" height="50" as="geometry" />
        </mxCell>
        <mxCell id="1vF6z5qYPoborKcWA8Q8-157" value="GLPI&#xa;192.168.2.41" style="shape=image;verticalLabelPosition=bottom;labelBackgroundColor=default;verticalAlign=top;aspect=fixed;imageAspect=0;image=https://www.linuxtricks.fr/upload/logo-glpi.png;fontStyle=1" parent="1" vertex="1">
          <mxGeometry x="-401.21999999999997" y="-621" width="90.91" height="50" as="geometry" />
        </mxCell>
        <mxCell id="1vF6z5qYPoborKcWA8Q8-161" value="&lt;b&gt;NAS&lt;/b&gt;&lt;div&gt;&lt;b&gt;192.168.2.42&lt;/b&gt;&lt;/div&gt;" style="sketch=0;pointerEvents=1;shadow=0;dashed=0;html=1;strokeColor=none;fillColor=#005F4B;labelPosition=center;verticalLabelPosition=bottom;verticalAlign=top;align=center;outlineConnect=0;shape=mxgraph.veeam2.nas;fontFamily=Helvetica;fontSize=11;fontColor=default;labelBackgroundColor=default;" parent="1" vertex="1">
          <mxGeometry x="-373.75999999999993" y="-501" width="48" height="48" as="geometry" />
        </mxCell>
        <mxCell id="1vF6z5qYPoborKcWA8Q8-163" value="&lt;b&gt;NAS&lt;/b&gt;&lt;div&gt;&lt;b&gt;192.168.11.41&lt;/b&gt;&lt;/div&gt;" style="sketch=0;pointerEvents=1;shadow=0;dashed=0;html=1;strokeColor=none;fillColor=#DF8C42;labelPosition=center;verticalLabelPosition=bottom;verticalAlign=top;align=center;outlineConnect=0;shape=mxgraph.veeam2.nas_backup;fontFamily=Helvetica;fontSize=11;fontColor=default;labelBackgroundColor=default;" parent="1" vertex="1">
          <mxGeometry x="1550" y="718" width="52" height="52" as="geometry" />
        </mxCell>
        <mxCell id="1vF6z5qYPoborKcWA8Q8-164" value="&lt;b&gt;AD&lt;/b&gt;&lt;div&gt;&lt;b&gt;192.168.11.40&lt;/b&gt;&lt;/div&gt;" style="sketch=0;aspect=fixed;pointerEvents=1;shadow=0;dashed=0;html=1;strokeColor=none;labelPosition=center;verticalLabelPosition=bottom;verticalAlign=top;align=center;fillColor=#00188D;shape=mxgraph.mscae.enterprise.windows_server;fontFamily=Helvetica;fontSize=11;fontColor=default;labelBackgroundColor=default;" parent="1" vertex="1">
          <mxGeometry x="1309.93" y="701.5" width="39" height="50" as="geometry" />
        </mxCell>
        <mxCell id="1vF6z5qYPoborKcWA8Q8-185" value="&lt;font style=&quot;border-color: var(--border-color); font-size: 12px;&quot;&gt;&lt;b style=&quot;border-color: var(--border-color);&quot;&gt;OpenVPN&amp;nbsp;&lt;/b&gt;&lt;/font&gt;" style="html=1;strokeWidth=1;shadow=0;dashed=0;shape=mxgraph.ios7.misc.vpn;fillColor=#007AFF;strokeColor=none;buttonText=;strokeColor2=#222222;fontColor=#222222;fontSize=8;verticalLabelPosition=bottom;verticalAlign=top;align=center;sketch=0;fontFamily=Helvetica;labelBackgroundColor=default;" parent="1" vertex="1">
          <mxGeometry x="11.499999999999991" y="92.71" width="35" height="40" as="geometry" />
        </mxCell>
        <mxCell id="1vF6z5qYPoborKcWA8Q8-186" value="" style="endArrow=none;html=1;rounded=0;entryX=1;entryY=0.5;entryDx=0;entryDy=0;entryPerimeter=0;strokeColor=#0000FF;" parent="1" source="1vF6z5qYPoborKcWA8Q8-185" target="1vF6z5qYPoborKcWA8Q8-26" edge="1">
          <mxGeometry width="50" height="50" relative="1" as="geometry">
            <mxPoint x="-418" y="70" as="sourcePoint" />
            <mxPoint x="-355" y="150" as="targetPoint" />
          </mxGeometry>
        </mxCell>
        <mxCell id="1vF6z5qYPoborKcWA8Q8-188" value="" style="endArrow=none;html=1;rounded=0;strokeColor=#0000FF;exitX=0.064;exitY=0.16;exitDx=0;exitDy=0;exitPerimeter=0;" parent="1" source="1vF6z5qYPoborKcWA8Q8-185" target="1vF6z5qYPoborKcWA8Q8-25" edge="1">
          <mxGeometry width="50" height="50" relative="1" as="geometry">
            <mxPoint x="-321" y="110" as="sourcePoint" />
            <mxPoint x="-341" y="153" as="targetPoint" />
          </mxGeometry>
        </mxCell>
        <mxCell id="1vF6z5qYPoborKcWA8Q8-189" value="" style="endArrow=none;html=1;rounded=0;entryX=0.479;entryY=0.567;entryDx=0;entryDy=0;entryPerimeter=0;strokeColor=#0000FF;exitX=0.488;exitY=0.045;exitDx=0;exitDy=0;exitPerimeter=0;" parent="1" source="1vF6z5qYPoborKcWA8Q8-185" target="1vF6z5qYPoborKcWA8Q8-24" edge="1">
          <mxGeometry width="50" height="50" relative="1" as="geometry">
            <mxPoint x="-300" y="80" as="sourcePoint" />
            <mxPoint x="-240" y="125" as="targetPoint" />
          </mxGeometry>
        </mxCell>
        <mxCell id="1vF6z5qYPoborKcWA8Q8-205" value="" style="endArrow=none;html=1;rounded=0;entryX=0.8555;entryY=0.145;entryDx=0;entryDy=0;entryPerimeter=0;strokeColor=#0000FF;exitX=0.032;exitY=0.816;exitDx=0;exitDy=0;exitPerimeter=0;" parent="1" source="1vF6z5qYPoborKcWA8Q8-185" target="1vF6z5qYPoborKcWA8Q8-27" edge="1">
          <mxGeometry width="50" height="50" relative="1" as="geometry">
            <mxPoint x="-150" y="170" as="sourcePoint" />
            <mxPoint x="-330" y="175" as="targetPoint" />
          </mxGeometry>
        </mxCell>
        <mxCell id="1vF6z5qYPoborKcWA8Q8-206" value="" style="endArrow=none;html=1;rounded=0;entryX=0.5;entryY=0;entryDx=0;entryDy=0;entryPerimeter=0;strokeColor=#0000FF;exitX=0.286;exitY=0.995;exitDx=0;exitDy=0;exitPerimeter=0;" parent="1" source="1vF6z5qYPoborKcWA8Q8-185" target="1vF6z5qYPoborKcWA8Q8-28" edge="1">
          <mxGeometry width="50" height="50" relative="1" as="geometry">
            <mxPoint x="-149" y="183" as="sourcePoint" />
            <mxPoint x="-277" y="277" as="targetPoint" />
          </mxGeometry>
        </mxCell>
        <mxCell id="1vF6z5qYPoborKcWA8Q8-207" value="" style="endArrow=none;html=1;rounded=0;entryX=0.5;entryY=0;entryDx=0;entryDy=0;entryPerimeter=0;strokeColor=#0000FF;exitX=0.599;exitY=0.968;exitDx=0;exitDy=0;exitPerimeter=0;" parent="1" source="1vF6z5qYPoborKcWA8Q8-185" target="1vF6z5qYPoborKcWA8Q8-29" edge="1">
          <mxGeometry width="50" height="50" relative="1" as="geometry">
            <mxPoint x="-140" y="190" as="sourcePoint" />
            <mxPoint x="-265" y="400" as="targetPoint" />
          </mxGeometry>
        </mxCell>
        <mxCell id="1vF6z5qYPoborKcWA8Q8-208" value="" style="endArrow=none;html=1;rounded=0;entryX=0.145;entryY=0.145;entryDx=0;entryDy=0;entryPerimeter=0;strokeColor=#0000FF;exitX=0.956;exitY=0.912;exitDx=0;exitDy=0;exitPerimeter=0;" parent="1" source="1vF6z5qYPoborKcWA8Q8-31" target="1vF6z5qYPoborKcWA8Q8-30" edge="1">
          <mxGeometry width="50" height="50" relative="1" as="geometry">
            <mxPoint x="-129" y="189" as="sourcePoint" />
            <mxPoint x="-85" y="420" as="targetPoint" />
          </mxGeometry>
        </mxCell>
        <mxCell id="1vF6z5qYPoborKcWA8Q8-209" value="" style="endArrow=none;html=1;rounded=0;entryX=0.013;entryY=0.64;entryDx=0;entryDy=0;entryPerimeter=0;strokeColor=#0000FF;exitX=0.987;exitY=0.308;exitDx=0;exitDy=0;exitPerimeter=0;" parent="1" source="1vF6z5qYPoborKcWA8Q8-185" target="1vF6z5qYPoborKcWA8Q8-23" edge="1">
          <mxGeometry width="50" height="50" relative="1" as="geometry">
            <mxPoint x="-117" y="186" as="sourcePoint" />
            <mxPoint x="27" y="377" as="targetPoint" />
          </mxGeometry>
        </mxCell>
        <mxCell id="1vF6z5qYPoborKcWA8Q8-210" value="" style="endArrow=none;html=1;rounded=0;entryX=0;entryY=0.5;entryDx=0;entryDy=0;entryPerimeter=0;strokeColor=#0000FF;" parent="1" target="1vF6z5qYPoborKcWA8Q8-33" edge="1" source="1vF6z5qYPoborKcWA8Q8-185">
          <mxGeometry width="50" height="50" relative="1" as="geometry">
            <mxPoint x="-147" y="240" as="sourcePoint" />
            <mxPoint x="1" y="122" as="targetPoint" />
          </mxGeometry>
        </mxCell>
        <mxCell id="1vF6z5qYPoborKcWA8Q8-211" value="" style="endArrow=none;html=1;rounded=0;entryX=0.145;entryY=0.145;entryDx=0;entryDy=0;entryPerimeter=0;strokeColor=#0000FF;exitX=0.73;exitY=0.5;exitDx=0;exitDy=0;exitPerimeter=0;" parent="1" source="1vF6z5qYPoborKcWA8Q8-185" target="1vF6z5qYPoborKcWA8Q8-34" edge="1">
          <mxGeometry width="50" height="50" relative="1" as="geometry">
            <mxPoint x="500" y="390" as="sourcePoint" />
            <mxPoint x="690" y="465" as="targetPoint" />
          </mxGeometry>
        </mxCell>
        <mxCell id="1vF6z5qYPoborKcWA8Q8-212" value="" style="endArrow=none;html=1;rounded=0;entryX=0;entryY=0.5;entryDx=0;entryDy=0;entryPerimeter=0;strokeColor=#0000FF;exitX=0.987;exitY=0.538;exitDx=0;exitDy=0;exitPerimeter=0;" parent="1" source="1vF6z5qYPoborKcWA8Q8-185" target="1vF6z5qYPoborKcWA8Q8-37" edge="1">
          <mxGeometry width="50" height="50" relative="1" as="geometry">
            <mxPoint x="-115" y="162" as="sourcePoint" />
            <mxPoint x="1" y="122" as="targetPoint" />
          </mxGeometry>
        </mxCell>
        <mxCell id="1vF6z5qYPoborKcWA8Q8-213" value="&lt;font style=&quot;border-color: var(--border-color); font-size: 12px;&quot;&gt;&lt;b style=&quot;border-color: var(--border-color);&quot;&gt;OpenVPN&amp;nbsp;&lt;/b&gt;&lt;/font&gt;" style="html=1;strokeWidth=1;shadow=0;dashed=0;shape=mxgraph.ios7.misc.vpn;fillColor=#007AFF;strokeColor=none;buttonText=;strokeColor2=#222222;fontColor=#222222;fontSize=8;verticalLabelPosition=bottom;verticalAlign=top;align=center;sketch=0;fontFamily=Helvetica;labelBackgroundColor=default;" parent="1" vertex="1">
          <mxGeometry x="968.79" y="300" width="35" height="40" as="geometry" />
        </mxCell>
        <mxCell id="1vF6z5qYPoborKcWA8Q8-214" value="" style="endArrow=none;html=1;rounded=0;entryX=0.43;entryY=-0.054;entryDx=0;entryDy=0;entryPerimeter=0;strokeColor=#0000FF;exitX=0.145;exitY=0.855;exitDx=0;exitDy=0;exitPerimeter=0;" parent="1" source="1vF6z5qYPoborKcWA8Q8-38" target="1vF6z5qYPoborKcWA8Q8-213" edge="1">
          <mxGeometry width="50" height="50" relative="1" as="geometry">
            <mxPoint x="-115" y="172" as="sourcePoint" />
            <mxPoint x="950" y="415" as="targetPoint" />
          </mxGeometry>
        </mxCell>
        <mxCell id="kG9CGg0rnO1S_L_5CX_d-1" value="&lt;b&gt;25 Personnes&lt;/b&gt;" style="ellipse;whiteSpace=wrap;html=1;fillColor=#6a00ff;strokeColor=#3700CC;fontColor=#ffffff;" parent="1" vertex="1">
          <mxGeometry x="-651.72" y="-691" width="76" height="50" as="geometry" />
        </mxCell>
        <mxCell id="kG9CGg0rnO1S_L_5CX_d-2" value="&lt;b&gt;5 Personnes&lt;/b&gt;" style="ellipse;whiteSpace=wrap;html=1;fillColor=#6a00ff;strokeColor=#3700CC;fontColor=#ffffff;" parent="1" vertex="1">
          <mxGeometry x="231.01" y="-466" width="76" height="50" as="geometry" />
        </mxCell>
        <mxCell id="kG9CGg0rnO1S_L_5CX_d-3" value="&lt;b&gt;5 Personnes&lt;/b&gt;" style="ellipse;whiteSpace=wrap;html=1;fillColor=#6a00ff;strokeColor=#3700CC;fontColor=#ffffff;" parent="1" vertex="1">
          <mxGeometry x="-1010.54" y="-64.28999999999999" width="76" height="50" as="geometry" />
        </mxCell>
        <mxCell id="kG9CGg0rnO1S_L_5CX_d-4" value="&lt;b&gt;5 Personnes&lt;/b&gt;" style="ellipse;whiteSpace=wrap;html=1;fillColor=#6a00ff;strokeColor=#3700CC;fontColor=#ffffff;" parent="1" vertex="1">
          <mxGeometry x="-914.11" y="471" width="76" height="50" as="geometry" />
        </mxCell>
        <mxCell id="kG9CGg0rnO1S_L_5CX_d-5" value="&lt;b&gt;5 Personnes&lt;/b&gt;" style="ellipse;whiteSpace=wrap;html=1;fillColor=#6a00ff;strokeColor=#3700CC;fontColor=#ffffff;" parent="1" vertex="1">
          <mxGeometry x="-711.93" y="628" width="76" height="50" as="geometry" />
        </mxCell>
        <mxCell id="kG9CGg0rnO1S_L_5CX_d-6" value="&lt;b&gt;5 Personnes&lt;/b&gt;" style="ellipse;whiteSpace=wrap;html=1;fillColor=#6a00ff;strokeColor=#3700CC;fontColor=#ffffff;" parent="1" vertex="1">
          <mxGeometry x="-266.29" y="809" width="76" height="50" as="geometry" />
        </mxCell>
        <mxCell id="kG9CGg0rnO1S_L_5CX_d-7" value="&lt;b&gt;5 Personnes&lt;/b&gt;" style="ellipse;whiteSpace=wrap;html=1;fillColor=#6a00ff;strokeColor=#3700CC;fontColor=#ffffff;" parent="1" vertex="1">
          <mxGeometry x="158.02" y="738" width="76" height="50" as="geometry" />
        </mxCell>
        <mxCell id="kG9CGg0rnO1S_L_5CX_d-8" value="&lt;b&gt;16 Personnes&lt;/b&gt;" style="ellipse;whiteSpace=wrap;html=1;fillColor=#6a00ff;strokeColor=#3700CC;fontColor=#ffffff;" parent="1" vertex="1">
          <mxGeometry x="604.12" y="979" width="76" height="50" as="geometry" />
        </mxCell>
        <mxCell id="kG9CGg0rnO1S_L_5CX_d-9" value="&lt;b&gt;12&lt;br&gt;&amp;nbsp;Personnes&lt;/b&gt;" style="ellipse;whiteSpace=wrap;html=1;fillColor=#6a00ff;strokeColor=#3700CC;fontColor=#ffffff;" parent="1" vertex="1">
          <mxGeometry x="1481.7" y="831" width="76" height="50" as="geometry" />
        </mxCell>
        <mxCell id="kG9CGg0rnO1S_L_5CX_d-10" value="&lt;b&gt;12&lt;br&gt;&amp;nbsp;Personnes&lt;/b&gt;" style="ellipse;whiteSpace=wrap;html=1;fillColor=#6a00ff;strokeColor=#3700CC;fontColor=#ffffff;" parent="1" vertex="1">
          <mxGeometry x="1638.35" y="35" width="76" height="50" as="geometry" />
        </mxCell>
        <mxCell id="kG9CGg0rnO1S_L_5CX_d-11" value="&lt;b&gt;WIFI&lt;br&gt;192.168.2.51&lt;/b&gt;" style="html=1;verticalLabelPosition=bottom;align=center;labelBackgroundColor=#ffffff;verticalAlign=top;strokeWidth=2;strokeColor=#0080F0;shadow=0;dashed=0;shape=mxgraph.ios7.icons.wifi;pointerEvents=1" parent="1" vertex="1">
          <mxGeometry x="-549" y="-675" width="50.91" height="36" as="geometry" />
        </mxCell>
        <mxCell id="kG9CGg0rnO1S_L_5CX_d-12" value="&lt;b&gt;WIFI&lt;br&gt;192.168.2.52&lt;/b&gt;" style="html=1;verticalLabelPosition=bottom;align=center;labelBackgroundColor=#ffffff;verticalAlign=top;strokeWidth=2;strokeColor=#0080F0;shadow=0;dashed=0;shape=mxgraph.ios7.icons.wifi;pointerEvents=1" parent="1" vertex="1">
          <mxGeometry x="-477" y="-665" width="50.91" height="36" as="geometry" />
        </mxCell>
        <mxCell id="kG9CGg0rnO1S_L_5CX_d-13" value="&lt;b&gt;WIFI&lt;br&gt;192.168.2.53&lt;/b&gt;" style="html=1;verticalLabelPosition=bottom;align=center;labelBackgroundColor=#ffffff;verticalAlign=top;strokeWidth=2;strokeColor=#0080F0;shadow=0;dashed=0;shape=mxgraph.ios7.icons.wifi;pointerEvents=1" parent="1" vertex="1">
          <mxGeometry x="-402.12999999999994" y="-737" width="50.91" height="36" as="geometry" />
        </mxCell>
        <mxCell id="kG9CGg0rnO1S_L_5CX_d-14" value="&lt;b&gt;WIFI&lt;br&gt;192.168.2.54&lt;/b&gt;" style="html=1;verticalLabelPosition=bottom;align=center;labelBackgroundColor=#ffffff;verticalAlign=top;strokeWidth=2;strokeColor=#0080F0;shadow=0;dashed=0;shape=mxgraph.ios7.icons.wifi;pointerEvents=1" parent="1" vertex="1">
          <mxGeometry x="-325.75999999999993" y="-691" width="50.91" height="36" as="geometry" />
        </mxCell>
        <mxCell id="kG9CGg0rnO1S_L_5CX_d-16" value="&lt;b&gt;WIFI&lt;br&gt;192.168.1.51&lt;/b&gt;" style="html=1;verticalLabelPosition=bottom;align=center;labelBackgroundColor=#ffffff;verticalAlign=top;strokeWidth=2;strokeColor=#0080F0;shadow=0;dashed=0;shape=mxgraph.ios7.icons.wifi;pointerEvents=1" parent="1" vertex="1">
          <mxGeometry x="110.10000000000001" y="-489" width="50.91" height="36" as="geometry" />
        </mxCell>
        <mxCell id="kG9CGg0rnO1S_L_5CX_d-17" value="&lt;b&gt;WIFI&lt;br&gt;192.168.3.51&lt;/b&gt;" style="html=1;verticalLabelPosition=bottom;align=center;labelBackgroundColor=#ffffff;verticalAlign=top;strokeWidth=2;strokeColor=#0080F0;shadow=0;dashed=0;shape=mxgraph.ios7.icons.wifi;pointerEvents=1" parent="1" vertex="1">
          <mxGeometry x="-801.4499999999999" y="-90.28999999999999" width="50.91" height="36" as="geometry" />
        </mxCell>
        <mxCell id="kG9CGg0rnO1S_L_5CX_d-18" value="&lt;b&gt;WIFI&lt;br&gt;192.168.16.51&lt;/b&gt;" style="html=1;verticalLabelPosition=bottom;align=center;labelBackgroundColor=#ffffff;verticalAlign=top;strokeWidth=2;strokeColor=#0080F0;shadow=0;dashed=0;shape=mxgraph.ios7.icons.wifi;pointerEvents=1" parent="1" vertex="1">
          <mxGeometry x="-940" y="307" width="50.91" height="36" as="geometry" />
        </mxCell>
        <mxCell id="kG9CGg0rnO1S_L_5CX_d-19" value="&lt;b&gt;WIFI&lt;br&gt;192.168.6.51&lt;/b&gt;" style="html=1;verticalLabelPosition=bottom;align=center;labelBackgroundColor=#ffffff;verticalAlign=top;strokeWidth=2;strokeColor=#0080F0;shadow=0;dashed=0;shape=mxgraph.ios7.icons.wifi;pointerEvents=1" parent="1" vertex="1">
          <mxGeometry x="-719.8399999999999" y="718" width="50.91" height="36" as="geometry" />
        </mxCell>
        <mxCell id="kG9CGg0rnO1S_L_5CX_d-20" value="&lt;b&gt;WIFI&lt;br&gt;192.168.5.51&lt;/b&gt;" style="html=1;verticalLabelPosition=bottom;align=center;labelBackgroundColor=#ffffff;verticalAlign=top;strokeWidth=2;strokeColor=#0080F0;shadow=0;dashed=0;shape=mxgraph.ios7.icons.wifi;pointerEvents=1" parent="1" vertex="1">
          <mxGeometry x="-273.75" y="891" width="50.91" height="36" as="geometry" />
        </mxCell>
        <mxCell id="kG9CGg0rnO1S_L_5CX_d-21" value="&lt;b&gt;WIFI&lt;br&gt;192.168.4.51&lt;/b&gt;" style="html=1;verticalLabelPosition=bottom;align=center;labelBackgroundColor=#ffffff;verticalAlign=top;strokeWidth=2;strokeColor=#0080F0;shadow=0;dashed=0;shape=mxgraph.ios7.icons.wifi;pointerEvents=1" parent="1" vertex="1">
          <mxGeometry x="358.02" y="624" width="50.91" height="36" as="geometry" />
        </mxCell>
        <mxCell id="kG9CGg0rnO1S_L_5CX_d-22" value="&lt;b&gt;WIFI&lt;br&gt;192.168.12.51&lt;/b&gt;" style="html=1;verticalLabelPosition=bottom;align=center;labelBackgroundColor=#ffffff;verticalAlign=top;strokeWidth=2;strokeColor=#0080F0;shadow=0;dashed=0;shape=mxgraph.ios7.icons.wifi;pointerEvents=1" parent="1" vertex="1">
          <mxGeometry x="680.12" y="1014" width="50.91" height="36" as="geometry" />
        </mxCell>
        <mxCell id="kG9CGg0rnO1S_L_5CX_d-23" value="&lt;b&gt;WIFI&lt;br&gt;192.168.12.52&lt;/b&gt;" style="html=1;verticalLabelPosition=bottom;align=center;labelBackgroundColor=#ffffff;verticalAlign=top;strokeWidth=2;strokeColor=#0080F0;shadow=0;dashed=0;shape=mxgraph.ios7.icons.wifi;pointerEvents=1" parent="1" vertex="1">
          <mxGeometry x="756.09" y="1034" width="50.91" height="36" as="geometry" />
        </mxCell>
        <mxCell id="kG9CGg0rnO1S_L_5CX_d-24" value="&lt;b&gt;WIFI&lt;br&gt;192.168.12.53&lt;/b&gt;" style="html=1;verticalLabelPosition=bottom;align=center;labelBackgroundColor=#ffffff;verticalAlign=top;strokeWidth=2;strokeColor=#0080F0;shadow=0;dashed=0;shape=mxgraph.ios7.icons.wifi;pointerEvents=1" parent="1" vertex="1">
          <mxGeometry x="837" y="1034" width="50.91" height="36" as="geometry" />
        </mxCell>
        <mxCell id="kG9CGg0rnO1S_L_5CX_d-25" value="&lt;b&gt;WIFI&lt;br&gt;192.168.11.51&lt;/b&gt;" style="html=1;verticalLabelPosition=bottom;align=center;labelBackgroundColor=#ffffff;verticalAlign=top;strokeWidth=2;strokeColor=#0080F0;shadow=0;dashed=0;shape=mxgraph.ios7.icons.wifi;pointerEvents=1" parent="1" vertex="1">
          <mxGeometry x="1416.3700000000001" y="563" width="50.91" height="36" as="geometry" />
        </mxCell>
        <mxCell id="kG9CGg0rnO1S_L_5CX_d-26" value="&lt;b&gt;WIFI&lt;br&gt;192.168.11.52&lt;/b&gt;" style="html=1;verticalLabelPosition=bottom;align=center;labelBackgroundColor=#ffffff;verticalAlign=top;strokeWidth=2;strokeColor=#0080F0;shadow=0;dashed=0;shape=mxgraph.ios7.icons.wifi;pointerEvents=1" parent="1" vertex="1">
          <mxGeometry x="1516.3700000000001" y="603" width="50.91" height="36" as="geometry" />
        </mxCell>
        <mxCell id="kG9CGg0rnO1S_L_5CX_d-27" value="&lt;b&gt;WIFI&lt;br&gt;192.168.10.51&lt;/b&gt;" style="html=1;verticalLabelPosition=bottom;align=center;labelBackgroundColor=#ffffff;verticalAlign=top;strokeWidth=2;strokeColor=#0080F0;shadow=0;dashed=0;shape=mxgraph.ios7.icons.wifi;pointerEvents=1" parent="1" vertex="1">
          <mxGeometry x="1537.4399999999998" y="175" width="50.91" height="36" as="geometry" />
        </mxCell>
        <mxCell id="kG9CGg0rnO1S_L_5CX_d-28" value="&lt;b&gt;WIFI&lt;br&gt;192.168.10.52&lt;/b&gt;" style="html=1;verticalLabelPosition=bottom;align=center;labelBackgroundColor=#ffffff;verticalAlign=top;strokeWidth=2;strokeColor=#0080F0;shadow=0;dashed=0;shape=mxgraph.ios7.icons.wifi;pointerEvents=1" parent="1" vertex="1">
          <mxGeometry x="1629.2599999999998" y="169" width="50.91" height="36" as="geometry" />
        </mxCell>
        <mxCell id="kG9CGg0rnO1S_L_5CX_d-35" style="edgeStyle=orthogonalEdgeStyle;rounded=0;orthogonalLoop=1;jettySize=auto;html=1;entryX=0;entryY=0.5;entryDx=0;entryDy=0;" parent="1" source="kG9CGg0rnO1S_L_5CX_d-30" target="kG9CGg0rnO1S_L_5CX_d-1" edge="1">
          <mxGeometry relative="1" as="geometry" />
        </mxCell>
        <mxCell id="kG9CGg0rnO1S_L_5CX_d-30" value="PC&lt;br&gt;192.168.2.60-126" style="sketch=0;pointerEvents=1;shadow=0;dashed=0;html=1;strokeColor=none;fillColor=#505050;labelPosition=center;verticalLabelPosition=bottom;verticalAlign=top;outlineConnect=0;align=center;shape=mxgraph.office.devices.workstation_pc;" parent="1" vertex="1">
          <mxGeometry x="-777.22" y="-641" width="61.98" height="69" as="geometry" />
        </mxCell>
        <mxCell id="HcDiLGQW-zu7AFygLWUx-8" style="edgeStyle=orthogonalEdgeStyle;rounded=0;orthogonalLoop=1;jettySize=auto;html=1;" edge="1" parent="1" source="kG9CGg0rnO1S_L_5CX_d-36" target="kG9CGg0rnO1S_L_5CX_d-3">
          <mxGeometry relative="1" as="geometry" />
        </mxCell>
        <mxCell id="kG9CGg0rnO1S_L_5CX_d-36" value="PC&lt;br&gt;192.168.3.60-126" style="sketch=0;pointerEvents=1;shadow=0;dashed=0;html=1;strokeColor=none;fillColor=#505050;labelPosition=center;verticalLabelPosition=bottom;verticalAlign=top;outlineConnect=0;align=center;shape=mxgraph.office.devices.workstation_pc;" parent="1" vertex="1">
          <mxGeometry x="-1101.98" y="-146" width="61.98" height="69" as="geometry" />
        </mxCell>
        <mxCell id="kG9CGg0rnO1S_L_5CX_d-45" style="edgeStyle=orthogonalEdgeStyle;rounded=0;orthogonalLoop=1;jettySize=auto;html=1;entryX=0.043;entryY=0.665;entryDx=0;entryDy=0;entryPerimeter=0;" parent="1" source="kG9CGg0rnO1S_L_5CX_d-37" target="kG9CGg0rnO1S_L_5CX_d-4" edge="1">
          <mxGeometry relative="1" as="geometry" />
        </mxCell>
        <mxCell id="kG9CGg0rnO1S_L_5CX_d-37" value="PC&lt;br&gt;192.168.16.60-126" style="sketch=0;pointerEvents=1;shadow=0;dashed=0;html=1;strokeColor=none;fillColor=#505050;labelPosition=center;verticalLabelPosition=bottom;verticalAlign=top;outlineConnect=0;align=center;shape=mxgraph.office.devices.workstation_pc;" parent="1" vertex="1">
          <mxGeometry x="-1040" y="471" width="61.98" height="69" as="geometry" />
        </mxCell>
        <mxCell id="kG9CGg0rnO1S_L_5CX_d-46" style="edgeStyle=orthogonalEdgeStyle;rounded=0;orthogonalLoop=1;jettySize=auto;html=1;entryX=0;entryY=0.5;entryDx=0;entryDy=0;" parent="1" source="kG9CGg0rnO1S_L_5CX_d-38" target="kG9CGg0rnO1S_L_5CX_d-5" edge="1">
          <mxGeometry relative="1" as="geometry" />
        </mxCell>
        <mxCell id="kG9CGg0rnO1S_L_5CX_d-38" value="PC&lt;br&gt;192.168.6.60-126" style="sketch=0;pointerEvents=1;shadow=0;dashed=0;html=1;strokeColor=none;fillColor=#505050;labelPosition=center;verticalLabelPosition=bottom;verticalAlign=top;outlineConnect=0;align=center;shape=mxgraph.office.devices.workstation_pc;" parent="1" vertex="1">
          <mxGeometry x="-838.02" y="683.5" width="61.98" height="69" as="geometry" />
        </mxCell>
        <mxCell id="kG9CGg0rnO1S_L_5CX_d-47" style="edgeStyle=orthogonalEdgeStyle;rounded=0;orthogonalLoop=1;jettySize=auto;html=1;entryX=0;entryY=0.5;entryDx=0;entryDy=0;" parent="1" source="kG9CGg0rnO1S_L_5CX_d-39" target="kG9CGg0rnO1S_L_5CX_d-6" edge="1">
          <mxGeometry relative="1" as="geometry" />
        </mxCell>
        <mxCell id="kG9CGg0rnO1S_L_5CX_d-39" value="PC&lt;br&gt;192.168.5.60-126" style="sketch=0;pointerEvents=1;shadow=0;dashed=0;html=1;strokeColor=none;fillColor=#505050;labelPosition=center;verticalLabelPosition=bottom;verticalAlign=top;outlineConnect=0;align=center;shape=mxgraph.office.devices.workstation_pc;" parent="1" vertex="1">
          <mxGeometry x="-386.25000000000006" y="910" width="61.98" height="69" as="geometry" />
        </mxCell>
        <mxCell id="kG9CGg0rnO1S_L_5CX_d-48" style="edgeStyle=orthogonalEdgeStyle;rounded=0;orthogonalLoop=1;jettySize=auto;html=1;" parent="1" source="kG9CGg0rnO1S_L_5CX_d-40" target="kG9CGg0rnO1S_L_5CX_d-7" edge="1">
          <mxGeometry relative="1" as="geometry" />
        </mxCell>
        <mxCell id="kG9CGg0rnO1S_L_5CX_d-40" value="PC&lt;br&gt;192.168.4.60-126" style="sketch=0;pointerEvents=1;shadow=0;dashed=0;html=1;strokeColor=none;fillColor=#505050;labelPosition=center;verticalLabelPosition=bottom;verticalAlign=top;outlineConnect=0;align=center;shape=mxgraph.office.devices.workstation_pc;" parent="1" vertex="1">
          <mxGeometry x="135.02999999999994" y="825" width="61.98" height="69" as="geometry" />
        </mxCell>
        <mxCell id="kG9CGg0rnO1S_L_5CX_d-49" style="edgeStyle=orthogonalEdgeStyle;rounded=0;orthogonalLoop=1;jettySize=auto;html=1;entryX=1;entryY=0.5;entryDx=0;entryDy=0;" parent="1" source="kG9CGg0rnO1S_L_5CX_d-41" target="kG9CGg0rnO1S_L_5CX_d-2" edge="1">
          <mxGeometry relative="1" as="geometry" />
        </mxCell>
        <mxCell id="kG9CGg0rnO1S_L_5CX_d-41" value="PC&lt;br&gt;192.168.1.60-126" style="sketch=0;pointerEvents=1;shadow=0;dashed=0;html=1;strokeColor=none;fillColor=#505050;labelPosition=center;verticalLabelPosition=bottom;verticalAlign=top;outlineConnect=0;align=center;shape=mxgraph.office.devices.workstation_pc;" parent="1" vertex="1">
          <mxGeometry x="381.01" y="-387" width="61.98" height="69" as="geometry" />
        </mxCell>
        <mxCell id="kG9CGg0rnO1S_L_5CX_d-53" style="edgeStyle=orthogonalEdgeStyle;rounded=0;orthogonalLoop=1;jettySize=auto;html=1;entryX=0.5;entryY=1;entryDx=0;entryDy=0;" parent="1" source="kG9CGg0rnO1S_L_5CX_d-50" target="kG9CGg0rnO1S_L_5CX_d-8" edge="1">
          <mxGeometry relative="1" as="geometry" />
        </mxCell>
        <mxCell id="kG9CGg0rnO1S_L_5CX_d-50" value="PC&lt;br&gt;192.168.12.60-126" style="sketch=0;pointerEvents=1;shadow=0;dashed=0;html=1;strokeColor=none;fillColor=#505050;labelPosition=center;verticalLabelPosition=bottom;verticalAlign=top;outlineConnect=0;align=center;shape=mxgraph.office.devices.workstation_pc;" parent="1" vertex="1">
          <mxGeometry x="587" y="1070" width="61.98" height="69" as="geometry" />
        </mxCell>
        <mxCell id="kG9CGg0rnO1S_L_5CX_d-54" style="edgeStyle=orthogonalEdgeStyle;rounded=0;orthogonalLoop=1;jettySize=auto;html=1;entryX=0.5;entryY=1;entryDx=0;entryDy=0;" parent="1" source="kG9CGg0rnO1S_L_5CX_d-51" target="kG9CGg0rnO1S_L_5CX_d-9" edge="1">
          <mxGeometry relative="1" as="geometry" />
        </mxCell>
        <mxCell id="kG9CGg0rnO1S_L_5CX_d-51" value="PC&lt;br&gt;192.168.11.60-126" style="sketch=0;pointerEvents=1;shadow=0;dashed=0;html=1;strokeColor=none;fillColor=#505050;labelPosition=center;verticalLabelPosition=bottom;verticalAlign=top;outlineConnect=0;align=center;shape=mxgraph.office.devices.workstation_pc;" parent="1" vertex="1">
          <mxGeometry x="1618.1900000000003" y="857" width="61.98" height="69" as="geometry" />
        </mxCell>
        <mxCell id="kG9CGg0rnO1S_L_5CX_d-55" style="edgeStyle=orthogonalEdgeStyle;rounded=0;orthogonalLoop=1;jettySize=auto;html=1;entryX=1;entryY=0.5;entryDx=0;entryDy=0;" parent="1" source="kG9CGg0rnO1S_L_5CX_d-52" target="kG9CGg0rnO1S_L_5CX_d-10" edge="1">
          <mxGeometry relative="1" as="geometry" />
        </mxCell>
        <mxCell id="kG9CGg0rnO1S_L_5CX_d-52" value="PC&lt;br&gt;192.168.10.60-126" style="sketch=0;pointerEvents=1;shadow=0;dashed=0;html=1;strokeColor=none;fillColor=#505050;labelPosition=center;verticalLabelPosition=bottom;verticalAlign=top;outlineConnect=0;align=center;shape=mxgraph.office.devices.workstation_pc;" parent="1" vertex="1">
          <mxGeometry x="1758.3500000000001" y="100" width="61.98" height="69" as="geometry" />
        </mxCell>
        <mxCell id="1vF6z5qYPoborKcWA8Q8-23" value="&lt;div style=&quot;text-align: justify;&quot;&gt;&lt;br&gt;&lt;/div&gt;" style="sketch=0;points=[[0.5,0,0],[1,0.5,0],[0.5,1,0],[0,0.5,0],[0.145,0.145,0],[0.8555,0.145,0],[0.855,0.8555,0],[0.145,0.855,0]];verticalLabelPosition=bottom;html=1;verticalAlign=top;align=center;pointerEvents=1;shape=mxgraph.cisco19.rect;prIcon=router;fillColor=#EA6B66;strokeColor=#005073;aspect=fixed;flipV=0;flipH=0;fontStyle=0;labelPosition=center;" parent="1" vertex="1">
          <mxGeometry x="142.99" y="74.71000000000001" width="50" height="50" as="geometry" />
        </mxCell>
        <mxCell id="XgDQlMH6c-jidfkfwzLR-1" value="&lt;b style=&quot;font-size: 10px;&quot;&gt;LAN&lt;/b&gt;&lt;div style=&quot;font-size: 10px;&quot;&gt;&lt;b style=&quot;font-size: 10px;&quot;&gt;192.168.1.21&lt;/b&gt;&lt;/div&gt;" style="rounded=0;whiteSpace=wrap;html=1;fillColor=default;gradientColor=none;strokeColor=none;fontSize=10;" parent="1" vertex="1">
          <mxGeometry x="85.02999999999999" y="-201" width="60" height="30" as="geometry" />
        </mxCell>
        <mxCell id="XgDQlMH6c-jidfkfwzLR-2" value="&lt;b style=&quot;font-size: 10px;&quot;&gt;LAN&lt;/b&gt;&lt;div style=&quot;font-size: 10px;&quot;&gt;&lt;b style=&quot;font-size: 10px;&quot;&gt;192.168.1.22&lt;/b&gt;&lt;/div&gt;" style="rounded=0;whiteSpace=wrap;html=1;fillColor=default;gradientColor=none;strokeColor=none;fontSize=10;" parent="1" vertex="1">
          <mxGeometry x="235.02999999999997" y="-201" width="60" height="30" as="geometry" />
        </mxCell>
        <mxCell id="XgDQlMH6c-jidfkfwzLR-3" value="&lt;b style=&quot;font-size: 10px;&quot;&gt;LAN&lt;/b&gt;&lt;div style=&quot;font-size: 10px;&quot;&gt;&lt;b style=&quot;font-size: 10px;&quot;&gt;192.168.2.21&lt;/b&gt;&lt;/div&gt;" style="rounded=0;whiteSpace=wrap;html=1;fillColor=default;gradientColor=none;strokeColor=none;fontSize=10;" parent="1" vertex="1">
          <mxGeometry x="-478.68999999999994" y="-318.5" width="63.91" height="45" as="geometry" />
        </mxCell>
        <mxCell id="XgDQlMH6c-jidfkfwzLR-4" value="&lt;b style=&quot;font-size: 10px;&quot;&gt;LAN&lt;/b&gt;&lt;div style=&quot;font-size: 10px;&quot;&gt;&lt;b style=&quot;font-size: 10px;&quot;&gt;192.168.2.22&lt;/b&gt;&lt;/div&gt;" style="rounded=0;whiteSpace=wrap;html=1;fillColor=default;gradientColor=none;strokeColor=none;fontSize=10;" parent="1" vertex="1">
          <mxGeometry x="-280.51" y="-311" width="60" height="30" as="geometry" />
        </mxCell>
        <mxCell id="XgDQlMH6c-jidfkfwzLR-5" value="&lt;b style=&quot;font-size: 10px;&quot;&gt;LAN&lt;/b&gt;&lt;div style=&quot;font-size: 10px;&quot;&gt;&lt;b style=&quot;font-size: 10px;&quot;&gt;192.168.3.21&lt;/b&gt;&lt;/div&gt;" style="rounded=0;whiteSpace=wrap;html=1;fillColor=default;gradientColor=none;strokeColor=none;fontSize=10;" parent="1" vertex="1">
          <mxGeometry x="-711.22" y="130.70999999999998" width="60" height="30" as="geometry" />
        </mxCell>
        <mxCell id="XgDQlMH6c-jidfkfwzLR-6" value="&lt;b style=&quot;font-size: 10px;&quot;&gt;LAN&lt;/b&gt;&lt;div style=&quot;font-size: 10px;&quot;&gt;&lt;b style=&quot;font-size: 10px;&quot;&gt;192.168.3.22&lt;/b&gt;&lt;/div&gt;" style="rounded=0;whiteSpace=wrap;html=1;fillColor=default;gradientColor=none;strokeColor=none;fontSize=10;" parent="1" vertex="1">
          <mxGeometry x="-654.22" y="-6" width="60" height="30" as="geometry" />
        </mxCell>
        <mxCell id="XgDQlMH6c-jidfkfwzLR-7" value="&lt;b style=&quot;font-size: 10px;&quot;&gt;LAN&lt;/b&gt;&lt;div style=&quot;font-size: 10px;&quot;&gt;&lt;b style=&quot;font-size: 10px;&quot;&gt;192.168.16.22&lt;/b&gt;&lt;/div&gt;" style="rounded=0;whiteSpace=wrap;html=1;fillColor=default;gradientColor=none;strokeColor=none;fontSize=10;" parent="1" vertex="1">
          <mxGeometry x="-673.54" y="285" width="60" height="30" as="geometry" />
        </mxCell>
        <mxCell id="XgDQlMH6c-jidfkfwzLR-8" value="&lt;b style=&quot;font-size: 10px;&quot;&gt;LAN&lt;/b&gt;&lt;div style=&quot;font-size: 10px;&quot;&gt;&lt;b style=&quot;font-size: 10px;&quot;&gt;192.168.16.21&lt;/b&gt;&lt;/div&gt;" style="rounded=0;whiteSpace=wrap;html=1;fillColor=default;gradientColor=none;strokeColor=none;fontSize=10;" parent="1" vertex="1">
          <mxGeometry x="-656" y="435" width="60" height="30" as="geometry" />
        </mxCell>
        <mxCell id="XgDQlMH6c-jidfkfwzLR-9" value="&lt;b style=&quot;font-size: 10px;&quot;&gt;LAN&lt;/b&gt;&lt;div style=&quot;font-size: 10px;&quot;&gt;&lt;b style=&quot;font-size: 10px;&quot;&gt;192.168.6.21&lt;/b&gt;&lt;/div&gt;" style="rounded=0;whiteSpace=wrap;html=1;fillColor=default;gradientColor=none;strokeColor=none;fontSize=10;" parent="1" vertex="1">
          <mxGeometry x="-550" y="528" width="60" height="30" as="geometry" />
        </mxCell>
        <mxCell id="XgDQlMH6c-jidfkfwzLR-10" value="&lt;b style=&quot;font-size: 10px;&quot;&gt;LAN&lt;/b&gt;&lt;div style=&quot;font-size: 10px;&quot;&gt;&lt;b style=&quot;font-size: 10px;&quot;&gt;192.168.6.22&lt;/b&gt;&lt;/div&gt;" style="rounded=0;whiteSpace=wrap;html=1;fillColor=default;gradientColor=none;strokeColor=none;fontSize=10;" parent="1" vertex="1">
          <mxGeometry x="-379.96" y="665" width="60" height="30" as="geometry" />
        </mxCell>
        <mxCell id="XgDQlMH6c-jidfkfwzLR-11" value="&lt;b style=&quot;font-size: 10px;&quot;&gt;LAN&lt;/b&gt;&lt;div style=&quot;font-size: 10px;&quot;&gt;&lt;b style=&quot;font-size: 10px;&quot;&gt;192.168.5.21&lt;/b&gt;&lt;/div&gt;" style="rounded=0;whiteSpace=wrap;html=1;fillColor=default;gradientColor=none;strokeColor=none;fontSize=10;" parent="1" vertex="1">
          <mxGeometry x="-255.00000000000003" y="699" width="60" height="30" as="geometry" />
        </mxCell>
        <mxCell id="XgDQlMH6c-jidfkfwzLR-12" value="&lt;b style=&quot;font-size: 10px;&quot;&gt;LAN&lt;/b&gt;&lt;div style=&quot;font-size: 10px;&quot;&gt;&lt;b style=&quot;font-size: 10px;&quot;&gt;192.168.5.22&lt;/b&gt;&lt;/div&gt;" style="rounded=0;whiteSpace=wrap;html=1;fillColor=default;gradientColor=none;strokeColor=none;fontSize=10;" parent="1" vertex="1">
          <mxGeometry x="-31.98" y="699" width="60" height="30" as="geometry" />
        </mxCell>
        <mxCell id="XgDQlMH6c-jidfkfwzLR-14" value="&lt;b style=&quot;font-size: 10px;&quot;&gt;LAN&lt;/b&gt;&lt;div style=&quot;font-size: 10px;&quot;&gt;&lt;b style=&quot;font-size: 10px;&quot;&gt;192.168.4.21&lt;/b&gt;&lt;/div&gt;" style="rounded=0;whiteSpace=wrap;html=1;fillColor=default;gradientColor=none;strokeColor=none;fontSize=10;" parent="1" vertex="1">
          <mxGeometry x="75.03000000000002" y="618" width="60" height="30" as="geometry" />
        </mxCell>
        <mxCell id="XgDQlMH6c-jidfkfwzLR-15" value="&lt;b style=&quot;font-size: 10px;&quot;&gt;LAN&lt;/b&gt;&lt;div style=&quot;font-size: 10px;&quot;&gt;&lt;b style=&quot;font-size: 10px;&quot;&gt;192.168.4.22&lt;/b&gt;&lt;/div&gt;" style="rounded=0;whiteSpace=wrap;html=1;fillColor=default;gradientColor=none;strokeColor=none;fontSize=10;" parent="1" vertex="1">
          <mxGeometry x="262" y="504" width="48" height="36" as="geometry" />
        </mxCell>
        <mxCell id="XgDQlMH6c-jidfkfwzLR-16" value="&lt;b style=&quot;font-size: 10px;&quot;&gt;LAN&lt;/b&gt;&lt;div style=&quot;font-size: 10px;&quot;&gt;&lt;b style=&quot;font-size: 10px;&quot;&gt;192.168.12.21&lt;/b&gt;&lt;/div&gt;" style="rounded=0;whiteSpace=wrap;html=1;fillColor=default;gradientColor=none;strokeColor=none;fontSize=10;" parent="1" vertex="1">
          <mxGeometry x="657" y="752" width="60" height="30" as="geometry" />
        </mxCell>
        <mxCell id="XgDQlMH6c-jidfkfwzLR-18" value="&lt;b style=&quot;font-size: 10px;&quot;&gt;LAN&lt;/b&gt;&lt;div style=&quot;font-size: 10px;&quot;&gt;&lt;b style=&quot;font-size: 10px;&quot;&gt;192.168.12.22&lt;/b&gt;&lt;/div&gt;" style="rounded=0;whiteSpace=wrap;html=1;fillColor=default;gradientColor=none;strokeColor=none;fontSize=10;" parent="1" vertex="1">
          <mxGeometry x="767.46" y="752" width="60" height="30" as="geometry" />
        </mxCell>
        <mxCell id="XgDQlMH6c-jidfkfwzLR-19" value="&lt;b style=&quot;font-size: 10px;&quot;&gt;LAN&lt;/b&gt;&lt;div style=&quot;font-size: 10px;&quot;&gt;&lt;b style=&quot;font-size: 10px;&quot;&gt;192.168.11.21&lt;/b&gt;&lt;/div&gt;" style="rounded=0;whiteSpace=wrap;html=1;fillColor=default;gradientColor=none;strokeColor=none;fontSize=10;" parent="1" vertex="1">
          <mxGeometry x="1209.93" y="611.5" width="60" height="30" as="geometry" />
        </mxCell>
        <mxCell id="XgDQlMH6c-jidfkfwzLR-20" value="&lt;b style=&quot;font-size: 10px;&quot;&gt;LAN&lt;/b&gt;&lt;div style=&quot;font-size: 10px;&quot;&gt;&lt;b style=&quot;font-size: 10px;&quot;&gt;192.168.11.22&lt;/b&gt;&lt;/div&gt;" style="rounded=0;whiteSpace=wrap;html=1;fillColor=default;gradientColor=none;strokeColor=none;fontSize=10;" parent="1" vertex="1">
          <mxGeometry x="1279.93" y="536.5" width="60" height="30" as="geometry" />
        </mxCell>
        <mxCell id="XgDQlMH6c-jidfkfwzLR-22" value="&lt;b style=&quot;font-size: 10px;&quot;&gt;LAN&lt;/b&gt;&lt;div style=&quot;font-size: 10px;&quot;&gt;&lt;b style=&quot;font-size: 10px;&quot;&gt;192.168.10.21&lt;/b&gt;&lt;/div&gt;" style="rounded=0;whiteSpace=wrap;html=1;fillColor=default;gradientColor=none;strokeColor=none;fontSize=10;" parent="1" vertex="1">
          <mxGeometry x="1373.79" y="221" width="60" height="30" as="geometry" />
        </mxCell>
        <mxCell id="XgDQlMH6c-jidfkfwzLR-23" value="&lt;b style=&quot;font-size: 10px;&quot;&gt;LAN&lt;/b&gt;&lt;div style=&quot;font-size: 10px;&quot;&gt;&lt;b style=&quot;font-size: 10px;&quot;&gt;192.168.10.22&lt;/b&gt;&lt;/div&gt;" style="rounded=0;whiteSpace=wrap;html=1;fillColor=default;gradientColor=none;strokeColor=none;fontSize=10;" parent="1" vertex="1">
          <mxGeometry x="1347.35" y="115" width="60" height="30" as="geometry" />
        </mxCell>
        <mxCell id="j0IOznlOSG03fqJFy7g4-1" value="&lt;font style=&quot;font-size: 23px;&quot;&gt;LAN&lt;/font&gt;" style="rounded=1;whiteSpace=wrap;html=1;fillColor=#ffe6cc;strokeColor=#d79b00;" parent="1" vertex="1">
          <mxGeometry x="-498.26" y="-385" width="65" height="34" as="geometry" />
        </mxCell>
        <mxCell id="j0IOznlOSG03fqJFy7g4-2" value="" style="ellipse;shape=cloud;whiteSpace=wrap;html=1;" parent="1" vertex="1">
          <mxGeometry x="-942.1800000000001" y="-490.29" width="213.91" height="209.29" as="geometry" />
        </mxCell>
        <mxCell id="j0IOznlOSG03fqJFy7g4-3" value="&lt;font style=&quot;font-size: 23px;&quot;&gt;DMZ&lt;/font&gt;" style="rounded=1;whiteSpace=wrap;html=1;fillColor=#d5e8d4;strokeColor=#82b366;" parent="1" vertex="1">
          <mxGeometry x="-858.1800000000001" y="-350" width="65" height="34" as="geometry" />
        </mxCell>
        <mxCell id="j0IOznlOSG03fqJFy7g4-4" value="&lt;b&gt;Linux - Docker&lt;/b&gt;&lt;div&gt;&lt;b&gt;192.168.200.40&lt;/b&gt;&lt;/div&gt;" style="shape=image;html=1;verticalAlign=top;verticalLabelPosition=bottom;labelBackgroundColor=#ffffff;imageAspect=0;aspect=fixed;image=https://cdn1.iconfinder.com/data/icons/unicons-line-vol-3/24/docker-128.png;fontFamily=Helvetica;fontSize=11;fontColor=default;" parent="1" vertex="1">
          <mxGeometry x="-872.1099999999999" y="-461" width="68" height="68" as="geometry" />
        </mxCell>
        <mxCell id="j0IOznlOSG03fqJFy7g4-7" value="" style="endArrow=none;html=1;rounded=0;exitX=0.65;exitY=0.524;exitDx=0;exitDy=0;entryX=0;entryY=0.5;entryDx=0;entryDy=0;strokeColor=#808080;exitPerimeter=0;" parent="1" source="pVeMIlFi2ukEuzGGwC0i-1" target="1vF6z5qYPoborKcWA8Q8-47" edge="1">
          <mxGeometry width="50" height="50" relative="1" as="geometry">
            <mxPoint x="-224.22" y="-131" as="sourcePoint" />
            <mxPoint x="-274.22" y="-116" as="targetPoint" />
          </mxGeometry>
        </mxCell>
        <mxCell id="j0IOznlOSG03fqJFy7g4-8" value="" style="endArrow=none;html=1;rounded=0;exitX=0.57;exitY=0.524;exitDx=0;exitDy=0;entryX=0;entryY=0.5;entryDx=0;entryDy=0;strokeColor=#808080;exitPerimeter=0;" parent="1" source="pVeMIlFi2ukEuzGGwC0i-1" target="1vF6z5qYPoborKcWA8Q8-48" edge="1">
          <mxGeometry width="50" height="50" relative="1" as="geometry">
            <mxPoint x="-224.22" y="-131" as="sourcePoint" />
            <mxPoint x="-274.22" y="-116" as="targetPoint" />
          </mxGeometry>
        </mxCell>
        <mxCell id="j0IOznlOSG03fqJFy7g4-9" value="&lt;b&gt;DMZ&lt;/b&gt;&lt;br&gt;&lt;div style=&quot;font-size: 10px;&quot;&gt;&lt;b style=&quot;font-size: 10px;&quot;&gt;192.168.200.21&lt;/b&gt;&lt;/div&gt;" style="rounded=0;whiteSpace=wrap;html=1;fillColor=default;gradientColor=none;strokeColor=none;fontSize=10;" parent="1" vertex="1">
          <mxGeometry x="-687.76" y="-226.29" width="60" height="30" as="geometry" />
        </mxCell>
        <mxCell id="j0IOznlOSG03fqJFy7g4-10" value="&lt;b&gt;DMZ&lt;/b&gt;&lt;br&gt;&lt;div style=&quot;font-size: 10px;&quot;&gt;&lt;b style=&quot;font-size: 10px;&quot;&gt;192.168.200.22&lt;/b&gt;&lt;/div&gt;" style="rounded=0;whiteSpace=wrap;html=1;fillColor=default;gradientColor=none;strokeColor=none;fontSize=10;" parent="1" vertex="1">
          <mxGeometry x="-614.22" y="-326" width="60" height="30" as="geometry" />
        </mxCell>
        <mxCell id="I3AutPQepK493rPZeZ-E-1" value="Linux - DHCP&lt;br&gt;192.168.12.40" style="verticalLabelPosition=bottom;sketch=0;aspect=fixed;html=1;verticalAlign=top;strokeColor=none;align=center;outlineConnect=0;shape=mxgraph.citrix.dhcp_server;" parent="1" vertex="1">
          <mxGeometry x="897.91" y="855.5" width="32.09" height="38" as="geometry" />
        </mxCell>
        <mxCell id="I3AutPQepK493rPZeZ-E-4" value="" style="sketch=0;points=[[0.015,0.015,0],[0.985,0.015,0],[0.985,0.985,0],[0.015,0.985,0],[0.25,0,0],[0.5,0,0],[0.75,0,0],[1,0.25,0],[1,0.5,0],[1,0.75,0],[0.75,1,0],[0.5,1,0],[0.25,1,0],[0,0.75,0],[0,0.5,0],[0,0.25,0]];verticalLabelPosition=bottom;html=1;verticalAlign=top;aspect=fixed;align=center;pointerEvents=1;shape=mxgraph.cisco19.rect;prIcon=l2_switch;fillColor=#FF99FF;strokeColor=#005073;" parent="1" vertex="1">
          <mxGeometry x="737" y="570" width="50" height="50" as="geometry" />
        </mxCell>
        <mxCell id="I3AutPQepK493rPZeZ-E-5" value="" style="sketch=0;points=[[0.015,0.015,0],[0.985,0.015,0],[0.985,0.985,0],[0.015,0.985,0],[0.25,0,0],[0.5,0,0],[0.75,0,0],[1,0.25,0],[1,0.5,0],[1,0.75,0],[0.75,1,0],[0.5,1,0],[0.25,1,0],[0,0.75,0],[0,0.5,0],[0,0.25,0]];verticalLabelPosition=bottom;html=1;verticalAlign=top;aspect=fixed;align=center;pointerEvents=1;shape=mxgraph.cisco19.rect;prIcon=l2_switch;fillColor=#FF99FF;strokeColor=#005073;" parent="1" vertex="1">
          <mxGeometry x="1100" y="455" width="50" height="50" as="geometry" />
        </mxCell>
        <mxCell id="I3AutPQepK493rPZeZ-E-6" value="" style="sketch=0;points=[[0.015,0.015,0],[0.985,0.015,0],[0.985,0.985,0],[0.015,0.985,0],[0.25,0,0],[0.5,0,0],[0.75,0,0],[1,0.25,0],[1,0.5,0],[1,0.75,0],[0.75,1,0],[0.5,1,0],[0.25,1,0],[0,0.75,0],[0,0.5,0],[0,0.25,0]];verticalLabelPosition=bottom;html=1;verticalAlign=top;aspect=fixed;align=center;pointerEvents=1;shape=mxgraph.cisco19.rect;prIcon=l2_switch;fillColor=#FF99FF;strokeColor=#005073;" parent="1" vertex="1">
          <mxGeometry x="1140" y="180" width="50" height="50" as="geometry" />
        </mxCell>
        <mxCell id="I3AutPQepK493rPZeZ-E-9" value="" style="endArrow=none;html=1;rounded=0;exitX=0.628;exitY=0.54;exitDx=0;exitDy=0;exitPerimeter=0;" parent="1" source="I3AutPQepK493rPZeZ-E-4" target="1vF6z5qYPoborKcWA8Q8-118" edge="1">
          <mxGeometry width="50" height="50" relative="1" as="geometry">
            <mxPoint x="1220" y="550" as="sourcePoint" />
            <mxPoint x="1270" y="500" as="targetPoint" />
          </mxGeometry>
        </mxCell>
        <mxCell id="I3AutPQepK493rPZeZ-E-10" value="" style="endArrow=none;html=1;rounded=0;entryX=0.436;entryY=0.54;entryDx=0;entryDy=0;entryPerimeter=0;" parent="1" source="1vF6z5qYPoborKcWA8Q8-117" target="I3AutPQepK493rPZeZ-E-4" edge="1">
          <mxGeometry width="50" height="50" relative="1" as="geometry">
            <mxPoint x="580" y="740" as="sourcePoint" />
            <mxPoint x="620" y="550" as="targetPoint" />
          </mxGeometry>
        </mxCell>
        <mxCell id="I3AutPQepK493rPZeZ-E-11" value="" style="endArrow=none;html=1;rounded=0;entryX=0.616;entryY=0.556;entryDx=0;entryDy=0;entryPerimeter=0;exitX=0.34;exitY=0.54;exitDx=0;exitDy=0;exitPerimeter=0;" parent="1" source="I3AutPQepK493rPZeZ-E-4" target="1vF6z5qYPoborKcWA8Q8-33" edge="1">
          <mxGeometry width="50" height="50" relative="1" as="geometry">
            <mxPoint x="580" y="610" as="sourcePoint" />
            <mxPoint x="630" y="560" as="targetPoint" />
          </mxGeometry>
        </mxCell>
        <mxCell id="I3AutPQepK493rPZeZ-E-12" value="" style="endArrow=none;html=1;rounded=0;entryX=0.482;entryY=0.471;entryDx=0;entryDy=0;entryPerimeter=0;exitX=0.692;exitY=0.572;exitDx=0;exitDy=0;exitPerimeter=0;" parent="1" source="I3AutPQepK493rPZeZ-E-4" target="1vF6z5qYPoborKcWA8Q8-34" edge="1">
          <mxGeometry width="50" height="50" relative="1" as="geometry">
            <mxPoint x="570" y="630" as="sourcePoint" />
            <mxPoint x="620" y="580" as="targetPoint" />
          </mxGeometry>
        </mxCell>
        <mxCell id="I3AutPQepK493rPZeZ-E-13" value="" style="endArrow=none;html=1;rounded=0;entryX=0.696;entryY=0.468;entryDx=0;entryDy=0;entryPerimeter=0;exitX=0.44;exitY=0.568;exitDx=0;exitDy=0;exitPerimeter=0;" parent="1" source="I3AutPQepK493rPZeZ-E-5" target="1vF6z5qYPoborKcWA8Q8-37" edge="1">
          <mxGeometry width="50" height="50" relative="1" as="geometry">
            <mxPoint x="1020" y="630" as="sourcePoint" />
            <mxPoint x="1070" y="580" as="targetPoint" />
          </mxGeometry>
        </mxCell>
        <mxCell id="I3AutPQepK493rPZeZ-E-14" value="" style="endArrow=none;html=1;rounded=0;exitX=0.568;exitY=0.632;exitDx=0;exitDy=0;exitPerimeter=0;" parent="1" source="I3AutPQepK493rPZeZ-E-5" target="1vF6z5qYPoborKcWA8Q8-119" edge="1">
          <mxGeometry width="50" height="50" relative="1" as="geometry">
            <mxPoint x="1030" y="630" as="sourcePoint" />
            <mxPoint x="1080" y="580" as="targetPoint" />
          </mxGeometry>
        </mxCell>
        <mxCell id="I3AutPQepK493rPZeZ-E-15" value="" style="endArrow=none;html=1;rounded=0;exitX=0.568;exitY=0.6;exitDx=0;exitDy=0;exitPerimeter=0;" parent="1" source="I3AutPQepK493rPZeZ-E-5" target="1vF6z5qYPoborKcWA8Q8-120" edge="1">
          <mxGeometry width="50" height="50" relative="1" as="geometry">
            <mxPoint x="1130" y="770" as="sourcePoint" />
            <mxPoint x="1180" y="720" as="targetPoint" />
          </mxGeometry>
        </mxCell>
        <mxCell id="I3AutPQepK493rPZeZ-E-16" value="" style="endArrow=none;html=1;rounded=0;entryX=0.548;entryY=0.54;entryDx=0;entryDy=0;entryPerimeter=0;exitX=0.568;exitY=0.692;exitDx=0;exitDy=0;exitPerimeter=0;" parent="1" source="I3AutPQepK493rPZeZ-E-6" target="1vF6z5qYPoborKcWA8Q8-38" edge="1">
          <mxGeometry width="50" height="50" relative="1" as="geometry">
            <mxPoint x="1140" y="340" as="sourcePoint" />
            <mxPoint x="1190" y="290" as="targetPoint" />
          </mxGeometry>
        </mxCell>
        <mxCell id="I3AutPQepK493rPZeZ-E-17" value="" style="endArrow=none;html=1;rounded=0;exitX=0.6;exitY=0.596;exitDx=0;exitDy=0;exitPerimeter=0;" parent="1" source="I3AutPQepK493rPZeZ-E-6" target="1vF6z5qYPoborKcWA8Q8-121" edge="1">
          <mxGeometry width="50" height="50" relative="1" as="geometry">
            <mxPoint x="1140" y="320" as="sourcePoint" />
            <mxPoint x="1190" y="270" as="targetPoint" />
          </mxGeometry>
        </mxCell>
        <mxCell id="I3AutPQepK493rPZeZ-E-18" value="" style="endArrow=none;html=1;rounded=0;entryX=0.536;entryY=0.564;entryDx=0;entryDy=0;entryPerimeter=0;" parent="1" source="1vF6z5qYPoborKcWA8Q8-122" target="I3AutPQepK493rPZeZ-E-6" edge="1">
          <mxGeometry width="50" height="50" relative="1" as="geometry">
            <mxPoint x="1200" y="360" as="sourcePoint" />
            <mxPoint x="1250" y="310" as="targetPoint" />
          </mxGeometry>
        </mxCell>
        <mxCell id="I3AutPQepK493rPZeZ-E-19" value="CARP LAN&lt;br&gt;192.168.12.23" style="text;html=1;strokeColor=none;fillColor=none;align=center;verticalAlign=middle;whiteSpace=wrap;rounded=0;" parent="1" vertex="1">
          <mxGeometry x="727" y="711.5" width="63" height="30" as="geometry" />
        </mxCell>
        <mxCell id="I3AutPQepK493rPZeZ-E-20" value="CARP LAN&lt;br&gt;192.168.11.23" style="text;html=1;strokeColor=none;fillColor=none;align=center;verticalAlign=middle;whiteSpace=wrap;rounded=0;" parent="1" vertex="1">
          <mxGeometry x="1241" y="566" width="69" height="30" as="geometry" />
        </mxCell>
        <mxCell id="I3AutPQepK493rPZeZ-E-21" value="CARP LAN&lt;br&gt;192.168.10.23" style="text;html=1;strokeColor=none;fillColor=none;align=center;verticalAlign=middle;whiteSpace=wrap;rounded=0;" parent="1" vertex="1">
          <mxGeometry x="1340" y="169" width="70" height="30" as="geometry" />
        </mxCell>
        <mxCell id="I3AutPQepK493rPZeZ-E-22" value="LAN&lt;br&gt;172.16.10.10" style="text;html=1;strokeColor=none;fillColor=none;align=center;verticalAlign=middle;whiteSpace=wrap;rounded=0;" parent="1" vertex="1">
          <mxGeometry x="1060" y="245" width="60" height="30" as="geometry" />
        </mxCell>
        <mxCell id="I3AutPQepK493rPZeZ-E-23" value="WAN&lt;br&gt;10.0.0.110" style="text;html=1;strokeColor=none;fillColor=none;align=center;verticalAlign=middle;whiteSpace=wrap;rounded=0;" parent="1" vertex="1">
          <mxGeometry x="943.79" y="185.71" width="60" height="30" as="geometry" />
        </mxCell>
        <mxCell id="I3AutPQepK493rPZeZ-E-24" value="LAN&lt;br&gt;172.16.11.10" style="text;html=1;strokeColor=none;fillColor=none;align=center;verticalAlign=middle;whiteSpace=wrap;rounded=0;" parent="1" vertex="1">
          <mxGeometry x="1030" y="405" width="60" height="30" as="geometry" />
        </mxCell>
        <mxCell id="I3AutPQepK493rPZeZ-E-26" value="WAN&lt;br&gt;10.0.0.111" style="text;html=1;strokeColor=none;fillColor=none;align=center;verticalAlign=middle;whiteSpace=wrap;rounded=0;" parent="1" vertex="1">
          <mxGeometry x="897.91" y="365" width="60" height="30" as="geometry" />
        </mxCell>
        <mxCell id="I3AutPQepK493rPZeZ-E-28" value="LAN&lt;br&gt;172.16.12.11" style="text;html=1;strokeColor=none;fillColor=none;align=center;verticalAlign=middle;whiteSpace=wrap;rounded=0;" parent="1" vertex="1">
          <mxGeometry x="837" y="520" width="60" height="30" as="geometry" />
        </mxCell>
        <mxCell id="I3AutPQepK493rPZeZ-E-29" value="LAN&lt;br&gt;172.16.12.10" style="text;html=1;strokeColor=none;fillColor=none;align=center;verticalAlign=middle;whiteSpace=wrap;rounded=0;" parent="1" vertex="1">
          <mxGeometry x="657" y="533" width="60" height="30" as="geometry" />
        </mxCell>
        <mxCell id="I3AutPQepK493rPZeZ-E-30" value="HSRP LAN&lt;br&gt;172.16.12.12" style="text;html=1;strokeColor=none;fillColor=none;align=center;verticalAlign=middle;whiteSpace=wrap;rounded=0;" parent="1" vertex="1">
          <mxGeometry x="730" y="497.5" width="70" height="25" as="geometry" />
        </mxCell>
        <mxCell id="I3AutPQepK493rPZeZ-E-31" value="HSRP WAN&lt;br&gt;10.0.0.133" style="text;html=1;strokeColor=none;fillColor=none;align=center;verticalAlign=middle;whiteSpace=wrap;rounded=0;" parent="1" vertex="1">
          <mxGeometry x="722" y="445" width="70" height="30" as="geometry" />
        </mxCell>
        <mxCell id="I3AutPQepK493rPZeZ-E-35" value="" style="sketch=0;points=[[0.015,0.015,0],[0.985,0.015,0],[0.985,0.985,0],[0.015,0.985,0],[0.25,0,0],[0.5,0,0],[0.75,0,0],[1,0.25,0],[1,0.5,0],[1,0.75,0],[0.75,1,0],[0.5,1,0],[0.25,1,0],[0,0.75,0],[0,0.5,0],[0,0.25,0]];verticalLabelPosition=bottom;html=1;verticalAlign=top;aspect=fixed;align=center;pointerEvents=1;shape=mxgraph.cisco19.rect;prIcon=l2_switch;fillColor=#FF99FF;strokeColor=#005073;" parent="1" vertex="1">
          <mxGeometry x="85.02999999999997" y="445" width="50" height="50" as="geometry" />
        </mxCell>
        <mxCell id="I3AutPQepK493rPZeZ-E-36" value="" style="endArrow=none;html=1;rounded=0;entryX=0.406;entryY=0.449;entryDx=0;entryDy=0;entryPerimeter=0;" parent="1" source="1vF6z5qYPoborKcWA8Q8-57" target="I3AutPQepK493rPZeZ-E-35" edge="1">
          <mxGeometry width="50" height="50" relative="1" as="geometry">
            <mxPoint x="460" y="580" as="sourcePoint" />
            <mxPoint x="510" y="530" as="targetPoint" />
          </mxGeometry>
        </mxCell>
        <mxCell id="I3AutPQepK493rPZeZ-E-37" value="" style="endArrow=none;html=1;rounded=0;" parent="1" source="1vF6z5qYPoborKcWA8Q8-58" target="I3AutPQepK493rPZeZ-E-35" edge="1">
          <mxGeometry width="50" height="50" relative="1" as="geometry">
            <mxPoint x="510" y="600" as="sourcePoint" />
            <mxPoint x="560" y="550" as="targetPoint" />
          </mxGeometry>
        </mxCell>
        <mxCell id="I3AutPQepK493rPZeZ-E-38" value="" style="endArrow=none;html=1;rounded=0;entryX=0.485;entryY=0.556;entryDx=0;entryDy=0;entryPerimeter=0;" parent="1" target="1vF6z5qYPoborKcWA8Q8-30" edge="1">
          <mxGeometry width="50" height="50" relative="1" as="geometry">
            <mxPoint x="110" y="470" as="sourcePoint" />
            <mxPoint x="550" y="500" as="targetPoint" />
          </mxGeometry>
        </mxCell>
        <mxCell id="I3AutPQepK493rPZeZ-E-39" value="LAN&lt;br&gt;172.16.4.10" style="text;html=1;strokeColor=none;fillColor=none;align=center;verticalAlign=middle;whiteSpace=wrap;rounded=0;" parent="1" vertex="1">
          <mxGeometry x="85.03" y="380" width="60" height="30" as="geometry" />
        </mxCell>
        <mxCell id="I3AutPQepK493rPZeZ-E-40" value="WAN&lt;br&gt;10.0.0.104" style="text;html=1;strokeColor=none;fillColor=none;align=center;verticalAlign=middle;whiteSpace=wrap;rounded=0;" parent="1" vertex="1">
          <mxGeometry x="70" y="331" width="60" height="30" as="geometry" />
        </mxCell>
        <mxCell id="I3AutPQepK493rPZeZ-E-41" value="WAN&lt;br&gt;10.0.0.112" style="text;html=1;strokeColor=none;fillColor=none;align=center;verticalAlign=middle;whiteSpace=wrap;rounded=0;" parent="1" vertex="1">
          <mxGeometry x="604.12" y="475" width="60" height="30" as="geometry" />
        </mxCell>
        <mxCell id="I3AutPQepK493rPZeZ-E-42" value="WAN&lt;br&gt;10.0.0.113" style="text;html=1;strokeColor=none;fillColor=none;align=center;verticalAlign=middle;whiteSpace=wrap;rounded=0;" parent="1" vertex="1">
          <mxGeometry x="860" y="440" width="60" height="30" as="geometry" />
        </mxCell>
        <mxCell id="I3AutPQepK493rPZeZ-E-43" style="edgeStyle=orthogonalEdgeStyle;rounded=0;orthogonalLoop=1;jettySize=auto;html=1;exitX=0.5;exitY=1;exitDx=0;exitDy=0;" parent="1" source="XgDQlMH6c-jidfkfwzLR-12" target="XgDQlMH6c-jidfkfwzLR-12" edge="1">
          <mxGeometry relative="1" as="geometry" />
        </mxCell>
        <mxCell id="I3AutPQepK493rPZeZ-E-44" value="" style="sketch=0;points=[[0.015,0.015,0],[0.985,0.015,0],[0.985,0.985,0],[0.015,0.985,0],[0.25,0,0],[0.5,0,0],[0.75,0,0],[1,0.25,0],[1,0.5,0],[1,0.75,0],[0.75,1,0],[0.5,1,0],[0.25,1,0],[0,0.75,0],[0,0.5,0],[0,0.25,0]];verticalLabelPosition=bottom;html=1;verticalAlign=top;aspect=fixed;align=center;pointerEvents=1;shape=mxgraph.cisco19.rect;prIcon=l2_switch;fillColor=#FF99FF;strokeColor=#005073;" parent="1" vertex="1">
          <mxGeometry x="-130" y="515" width="50" height="50" as="geometry" />
        </mxCell>
        <mxCell id="I3AutPQepK493rPZeZ-E-45" value="" style="endArrow=none;html=1;rounded=0;entryX=0.548;entryY=0.515;entryDx=0;entryDy=0;entryPerimeter=0;exitX=0.546;exitY=0.52;exitDx=0;exitDy=0;exitPerimeter=0;" parent="1" source="I3AutPQepK493rPZeZ-E-44" target="1vF6z5qYPoborKcWA8Q8-29" edge="1">
          <mxGeometry width="50" height="50" relative="1" as="geometry">
            <mxPoint x="-40" y="560" as="sourcePoint" />
            <mxPoint x="10" y="510" as="targetPoint" />
          </mxGeometry>
        </mxCell>
        <mxCell id="I3AutPQepK493rPZeZ-E-46" value="" style="endArrow=none;html=1;rounded=0;entryX=0.58;entryY=0.469;entryDx=0;entryDy=0;entryPerimeter=0;" parent="1" source="1vF6z5qYPoborKcWA8Q8-55" target="I3AutPQepK493rPZeZ-E-44" edge="1">
          <mxGeometry width="50" height="50" relative="1" as="geometry">
            <mxPoint x="-230" y="590" as="sourcePoint" />
            <mxPoint x="-180" y="540" as="targetPoint" />
          </mxGeometry>
        </mxCell>
        <mxCell id="I3AutPQepK493rPZeZ-E-47" value="" style="endArrow=none;html=1;rounded=0;entryX=0.563;entryY=0.571;entryDx=0;entryDy=0;entryPerimeter=0;" parent="1" source="1vF6z5qYPoborKcWA8Q8-56" target="I3AutPQepK493rPZeZ-E-44" edge="1">
          <mxGeometry width="50" height="50" relative="1" as="geometry">
            <mxPoint x="-30" y="590" as="sourcePoint" />
            <mxPoint x="20" y="540" as="targetPoint" />
          </mxGeometry>
        </mxCell>
        <mxCell id="I3AutPQepK493rPZeZ-E-48" value="LAN&lt;br&gt;172.16.5.10" style="text;html=1;strokeColor=none;fillColor=none;align=center;verticalAlign=middle;whiteSpace=wrap;rounded=0;" parent="1" vertex="1">
          <mxGeometry x="-163.63" y="465" width="60" height="30" as="geometry" />
        </mxCell>
        <mxCell id="I3AutPQepK493rPZeZ-E-49" value="WAN&lt;br&gt;10.0.0.105" style="text;html=1;strokeColor=none;fillColor=none;align=center;verticalAlign=middle;whiteSpace=wrap;rounded=0;" parent="1" vertex="1">
          <mxGeometry x="-82.89" y="375" width="60" height="30" as="geometry" />
        </mxCell>
        <mxCell id="I3AutPQepK493rPZeZ-E-52" value="CARP LAN&lt;br&gt;192.168.4.23" style="text;html=1;strokeColor=none;fillColor=none;align=center;verticalAlign=middle;whiteSpace=wrap;rounded=0;" parent="1" vertex="1">
          <mxGeometry x="148.02" y="541" width="71.98" height="30" as="geometry" />
        </mxCell>
        <mxCell id="I3AutPQepK493rPZeZ-E-53" value="CARP LAN&lt;br&gt;192.168.5.23" style="text;html=1;strokeColor=none;fillColor=none;align=center;verticalAlign=middle;whiteSpace=wrap;rounded=0;" parent="1" vertex="1">
          <mxGeometry x="-154" y="688" width="64" height="30" as="geometry" />
        </mxCell>
        <mxCell id="I3AutPQepK493rPZeZ-E-54" value="CARP&lt;br&gt;192.168.6.23" style="text;html=1;strokeColor=none;fillColor=none;align=center;verticalAlign=middle;whiteSpace=wrap;rounded=0;" parent="1" vertex="1">
          <mxGeometry x="-461.43" y="580" width="60" height="30" as="geometry" />
        </mxCell>
        <mxCell id="I3AutPQepK493rPZeZ-E-55" value="" style="sketch=0;points=[[0.015,0.015,0],[0.985,0.015,0],[0.985,0.985,0],[0.015,0.985,0],[0.25,0,0],[0.5,0,0],[0.75,0,0],[1,0.25,0],[1,0.5,0],[1,0.75,0],[0.75,1,0],[0.5,1,0],[0.25,1,0],[0,0.75,0],[0,0.5,0],[0,0.25,0]];verticalLabelPosition=bottom;html=1;verticalAlign=top;aspect=fixed;align=center;pointerEvents=1;shape=mxgraph.cisco19.rect;prIcon=l2_switch;fillColor=#FF99FF;strokeColor=#005073;" parent="1" vertex="1">
          <mxGeometry x="-345" y="455" width="50" height="50" as="geometry" />
        </mxCell>
        <mxCell id="I3AutPQepK493rPZeZ-E-56" value="" style="sketch=0;points=[[0.015,0.015,0],[0.985,0.015,0],[0.985,0.985,0],[0.015,0.985,0],[0.25,0,0],[0.5,0,0],[0.75,0,0],[1,0.25,0],[1,0.5,0],[1,0.75,0],[0.75,1,0],[0.5,1,0],[0.25,1,0],[0,0.75,0],[0,0.5,0],[0,0.25,0]];verticalLabelPosition=bottom;html=1;verticalAlign=top;aspect=fixed;align=center;pointerEvents=1;shape=mxgraph.cisco19.rect;prIcon=l2_switch;fillColor=#FF99FF;strokeColor=#005073;" parent="1" vertex="1">
          <mxGeometry x="-457.52" y="311" width="50" height="50" as="geometry" />
        </mxCell>
        <mxCell id="I3AutPQepK493rPZeZ-E-57" value="" style="sketch=0;points=[[0.015,0.015,0],[0.985,0.015,0],[0.985,0.985,0],[0.015,0.985,0],[0.25,0,0],[0.5,0,0],[0.75,0,0],[1,0.25,0],[1,0.5,0],[1,0.75,0],[0.75,1,0],[0.5,1,0],[0.25,1,0],[0,0.75,0],[0,0.5,0],[0,0.25,0]];verticalLabelPosition=bottom;html=1;verticalAlign=top;aspect=fixed;align=center;pointerEvents=1;shape=mxgraph.cisco19.rect;prIcon=l2_switch;fillColor=#FF99FF;strokeColor=#005073;" parent="1" vertex="1">
          <mxGeometry x="-490.00000000000006" y="122.71000000000001" width="50" height="50" as="geometry" />
        </mxCell>
        <mxCell id="I3AutPQepK493rPZeZ-E-58" value="" style="endArrow=none;html=1;rounded=0;entryX=0.434;entryY=0.457;entryDx=0;entryDy=0;entryPerimeter=0;" parent="1" source="1vF6z5qYPoborKcWA8Q8-53" target="I3AutPQepK493rPZeZ-E-55" edge="1">
          <mxGeometry width="50" height="50" relative="1" as="geometry">
            <mxPoint x="-400" y="480" as="sourcePoint" />
            <mxPoint x="-350" y="430" as="targetPoint" />
          </mxGeometry>
        </mxCell>
        <mxCell id="I3AutPQepK493rPZeZ-E-59" value="" style="endArrow=none;html=1;rounded=0;" parent="1" source="1vF6z5qYPoborKcWA8Q8-54" edge="1">
          <mxGeometry width="50" height="50" relative="1" as="geometry">
            <mxPoint x="-260" y="560" as="sourcePoint" />
            <mxPoint x="-320" y="480" as="targetPoint" />
          </mxGeometry>
        </mxCell>
        <mxCell id="I3AutPQepK493rPZeZ-E-60" value="" style="endArrow=none;html=1;rounded=0;entryX=0.622;entryY=0.552;entryDx=0;entryDy=0;entryPerimeter=0;" parent="1" target="1vF6z5qYPoborKcWA8Q8-28" edge="1">
          <mxGeometry width="50" height="50" relative="1" as="geometry">
            <mxPoint x="-320" y="480" as="sourcePoint" />
            <mxPoint x="-180" y="470" as="targetPoint" />
          </mxGeometry>
        </mxCell>
        <mxCell id="I3AutPQepK493rPZeZ-E-61" value="WAN&lt;br&gt;10.0.0.106" style="text;html=1;strokeColor=none;fillColor=none;align=center;verticalAlign=middle;whiteSpace=wrap;rounded=0;" parent="1" vertex="1">
          <mxGeometry x="-200" y="350" width="60" height="30" as="geometry" />
        </mxCell>
        <mxCell id="I3AutPQepK493rPZeZ-E-62" value="LAN&lt;br&gt;172.16.6.10" style="text;html=1;strokeColor=none;fillColor=none;align=center;verticalAlign=middle;whiteSpace=wrap;rounded=0;" parent="1" vertex="1">
          <mxGeometry x="-260" y="410" width="60" height="30" as="geometry" />
        </mxCell>
        <mxCell id="I3AutPQepK493rPZeZ-E-63" value="" style="endArrow=none;html=1;rounded=0;" parent="1" source="I3AutPQepK493rPZeZ-E-56" target="1vF6z5qYPoborKcWA8Q8-51" edge="1">
          <mxGeometry width="50" height="50" relative="1" as="geometry">
            <mxPoint x="-560" y="490" as="sourcePoint" />
            <mxPoint x="-510" y="440" as="targetPoint" />
          </mxGeometry>
        </mxCell>
        <mxCell id="I3AutPQepK493rPZeZ-E-64" value="" style="endArrow=none;html=1;rounded=0;exitX=0.562;exitY=0.558;exitDx=0;exitDy=0;exitPerimeter=0;" parent="1" source="I3AutPQepK493rPZeZ-E-56" target="1vF6z5qYPoborKcWA8Q8-52" edge="1">
          <mxGeometry width="50" height="50" relative="1" as="geometry">
            <mxPoint x="-660" y="560" as="sourcePoint" />
            <mxPoint x="-610" y="510" as="targetPoint" />
          </mxGeometry>
        </mxCell>
        <mxCell id="I3AutPQepK493rPZeZ-E-65" value="" style="endArrow=none;html=1;rounded=0;entryX=0.461;entryY=0.524;entryDx=0;entryDy=0;entryPerimeter=0;" parent="1" edge="1">
          <mxGeometry width="50" height="50" relative="1" as="geometry">
            <mxPoint x="-333.04" y="297" as="sourcePoint" />
            <mxPoint x="-466.5099999999998" y="348.2000000000003" as="targetPoint" />
          </mxGeometry>
        </mxCell>
        <mxCell id="I3AutPQepK493rPZeZ-E-66" value="LAN&lt;br&gt;172.16.16.10" style="text;html=1;strokeColor=none;fillColor=none;align=center;verticalAlign=middle;whiteSpace=wrap;rounded=0;" parent="1" vertex="1">
          <mxGeometry x="-360" y="315" width="60" height="30" as="geometry" />
        </mxCell>
        <mxCell id="I3AutPQepK493rPZeZ-E-67" value="WAN&lt;br&gt;10.0.0.116" style="text;html=1;strokeColor=none;fillColor=none;align=center;verticalAlign=middle;whiteSpace=wrap;rounded=0;" parent="1" vertex="1">
          <mxGeometry x="-310" y="267.5" width="60" height="30" as="geometry" />
        </mxCell>
        <mxCell id="I3AutPQepK493rPZeZ-E-68" value="" style="endArrow=none;html=1;rounded=0;entryX=0.145;entryY=0.145;entryDx=0;entryDy=0;entryPerimeter=0;strokeColor=#0000FF;exitX=0.956;exitY=0.912;exitDx=0;exitDy=0;exitPerimeter=0;" parent="1" source="1vF6z5qYPoborKcWA8Q8-185" target="1vF6z5qYPoborKcWA8Q8-31" edge="1">
          <mxGeometry width="50" height="50" relative="1" as="geometry">
            <mxPoint x="-127" y="176" as="sourcePoint" />
            <mxPoint x="35" y="372" as="targetPoint" />
          </mxGeometry>
        </mxCell>
        <mxCell id="1vF6z5qYPoborKcWA8Q8-31" value="" style="sketch=0;points=[[0.015,0.015,0],[0.985,0.015,0],[0.985,0.985,0],[0.015,0.985,0],[0.25,0,0],[0.5,0,0],[0.75,0,0],[1,0.25,0],[1,0.5,0],[1,0.75,0],[0.75,1,0],[0.5,1,0],[0.25,1,0],[0,0.75,0],[0,0.5,0],[0,0.25,0]];verticalLabelPosition=bottom;html=1;verticalAlign=top;aspect=fixed;align=center;pointerEvents=1;shape=mxgraph.cisco19.rect;prIcon=l2_switch;fillColor=#FFD966;strokeColor=#005073;" parent="1" vertex="1">
          <mxGeometry x="-91.97999999999999" y="245" width="40" height="40" as="geometry" />
        </mxCell>
        <mxCell id="I3AutPQepK493rPZeZ-E-69" value="" style="endArrow=none;html=1;rounded=0;" parent="1" source="1vF6z5qYPoborKcWA8Q8-49" target="1vF6z5qYPoborKcWA8Q8-17" edge="1">
          <mxGeometry width="50" height="50" relative="1" as="geometry">
            <mxPoint x="-633.2200000000003" y="151.43999999999994" as="sourcePoint" />
            <mxPoint x="-781.2199999999998" y="160.710786516854" as="targetPoint" />
          </mxGeometry>
        </mxCell>
        <mxCell id="I3AutPQepK493rPZeZ-E-70" value="" style="endArrow=none;html=1;rounded=0;exitX=0;exitY=0.5;exitDx=0;exitDy=0;entryX=0.751;entryY=0.366;entryDx=0;entryDy=0;entryPerimeter=0;" parent="1" source="1vF6z5qYPoborKcWA8Q8-50" target="1vF6z5qYPoborKcWA8Q8-17" edge="1">
          <mxGeometry width="50" height="50" relative="1" as="geometry">
            <mxPoint x="-511.1400000000001" y="54.00000000000012" as="sourcePoint" />
            <mxPoint x="-536.0023830972075" y="-38.11000000000001" as="targetPoint" />
          </mxGeometry>
        </mxCell>
        <mxCell id="I3AutPQepK493rPZeZ-E-71" value="" style="endArrow=none;html=1;rounded=0;entryX=0.509;entryY=0.446;entryDx=0;entryDy=0;entryPerimeter=0;exitX=1;exitY=0.5;exitDx=0;exitDy=0;" parent="1" target="I3AutPQepK493rPZeZ-E-57" edge="1" source="1vF6z5qYPoborKcWA8Q8-50">
          <mxGeometry width="50" height="50" relative="1" as="geometry">
            <mxPoint x="-477" y="50.849999999999994" as="sourcePoint" />
            <mxPoint x="-353.37999999999965" y="69.00000000000009" as="targetPoint" />
          </mxGeometry>
        </mxCell>
        <mxCell id="I3AutPQepK493rPZeZ-E-72" value="LAN&lt;br&gt;172.16.3.10" style="text;html=1;strokeColor=none;fillColor=none;align=center;verticalAlign=middle;whiteSpace=wrap;rounded=0;" parent="1" vertex="1">
          <mxGeometry x="-446" y="202" width="60" height="30" as="geometry" />
        </mxCell>
        <mxCell id="I3AutPQepK493rPZeZ-E-73" value="WAN&lt;br&gt;10.0.0.103" style="text;html=1;strokeColor=none;fillColor=none;align=center;verticalAlign=middle;whiteSpace=wrap;rounded=0;" parent="1" vertex="1">
          <mxGeometry x="-362.04" y="199" width="60" height="30" as="geometry" />
        </mxCell>
        <mxCell id="I3AutPQepK493rPZeZ-E-74" value="CARP LAN&lt;br&gt;192.168.3.23" style="text;html=1;strokeColor=none;fillColor=none;align=center;verticalAlign=middle;whiteSpace=wrap;rounded=0;" parent="1" vertex="1">
          <mxGeometry x="-633.09" y="85" width="77.09" height="30" as="geometry" />
        </mxCell>
        <mxCell id="I3AutPQepK493rPZeZ-E-75" value="" style="sketch=0;points=[[0.015,0.015,0],[0.985,0.015,0],[0.985,0.985,0],[0.015,0.985,0],[0.25,0,0],[0.5,0,0],[0.75,0,0],[1,0.25,0],[1,0.5,0],[1,0.75,0],[0.75,1,0],[0.5,1,0],[0.25,1,0],[0,0.75,0],[0,0.5,0],[0,0.25,0]];verticalLabelPosition=bottom;html=1;verticalAlign=top;aspect=fixed;align=center;pointerEvents=1;shape=mxgraph.cisco19.rect;prIcon=l2_switch;fillColor=#FF99FF;strokeColor=#005073;" parent="1" vertex="1">
          <mxGeometry x="158.02" y="-26" width="50" height="50" as="geometry" />
        </mxCell>
        <mxCell id="I3AutPQepK493rPZeZ-E-76" value="" style="sketch=0;points=[[0.015,0.015,0],[0.985,0.015,0],[0.985,0.985,0],[0.015,0.985,0],[0.25,0,0],[0.5,0,0],[0.75,0,0],[1,0.25,0],[1,0.5,0],[1,0.75,0],[0.75,1,0],[0.5,1,0],[0.25,1,0],[0,0.75,0],[0,0.5,0],[0,0.25,0]];verticalLabelPosition=bottom;html=1;verticalAlign=top;aspect=fixed;align=center;pointerEvents=1;shape=mxgraph.cisco19.rect;prIcon=l2_switch;fillColor=#FF99FF;strokeColor=#005073;" parent="1" vertex="1">
          <mxGeometry x="-304.22" y="-100.29" width="50" height="50" as="geometry" />
        </mxCell>
        <mxCell id="I3AutPQepK493rPZeZ-E-77" value="" style="endArrow=none;html=1;rounded=0;exitX=0.545;exitY=0.571;exitDx=0;exitDy=0;exitPerimeter=0;" parent="1" source="I3AutPQepK493rPZeZ-E-75" target="1vF6z5qYPoborKcWA8Q8-40" edge="1">
          <mxGeometry width="50" height="50" relative="1" as="geometry">
            <mxPoint x="242.99" y="99" as="sourcePoint" />
            <mxPoint x="292.99" y="49" as="targetPoint" />
          </mxGeometry>
        </mxCell>
        <mxCell id="I3AutPQepK493rPZeZ-E-78" value="" style="endArrow=none;html=1;rounded=0;exitX=0.562;exitY=0.587;exitDx=0;exitDy=0;exitPerimeter=0;" parent="1" source="I3AutPQepK493rPZeZ-E-75" target="1vF6z5qYPoborKcWA8Q8-44" edge="1">
          <mxGeometry width="50" height="50" relative="1" as="geometry">
            <mxPoint x="130" y="100" as="sourcePoint" />
            <mxPoint x="180" y="50" as="targetPoint" />
          </mxGeometry>
        </mxCell>
        <mxCell id="I3AutPQepK493rPZeZ-E-79" value="" style="endArrow=none;html=1;rounded=0;entryX=0.477;entryY=0.604;entryDx=0;entryDy=0;entryPerimeter=0;" parent="1" source="1vF6z5qYPoborKcWA8Q8-23" target="I3AutPQepK493rPZeZ-E-75" edge="1">
          <mxGeometry width="50" height="50" relative="1" as="geometry">
            <mxPoint x="110" y="130" as="sourcePoint" />
            <mxPoint x="160" y="80" as="targetPoint" />
          </mxGeometry>
        </mxCell>
        <mxCell id="I3AutPQepK493rPZeZ-E-80" value="LAN&lt;br&gt;172.16.1.10" style="text;html=1;strokeColor=none;fillColor=none;align=center;verticalAlign=middle;whiteSpace=wrap;rounded=0;" parent="1" vertex="1">
          <mxGeometry x="192.99" y="54" width="60" height="30" as="geometry" />
        </mxCell>
        <mxCell id="I3AutPQepK493rPZeZ-E-81" value="WAN&lt;br&gt;10.0.0.101" style="text;html=1;strokeColor=none;fillColor=none;align=center;verticalAlign=middle;whiteSpace=wrap;rounded=0;" parent="1" vertex="1">
          <mxGeometry x="161.01000000000002" y="130" width="60" height="30" as="geometry" />
        </mxCell>
        <mxCell id="I3AutPQepK493rPZeZ-E-82" value="CARP LAN&lt;br&gt;192.168.16.23" style="text;html=1;strokeColor=none;fillColor=none;align=center;verticalAlign=middle;whiteSpace=wrap;rounded=0;" parent="1" vertex="1">
          <mxGeometry x="-640" y="355" width="64" height="30" as="geometry" />
        </mxCell>
        <mxCell id="I3AutPQepK493rPZeZ-E-83" value="CARP LAN&lt;br&gt;192.168.2.23" style="text;html=1;strokeColor=none;fillColor=none;align=center;verticalAlign=middle;whiteSpace=wrap;rounded=0;" parent="1" vertex="1">
          <mxGeometry x="-411.21999999999997" y="-201.00000000000003" width="87" height="30" as="geometry" />
        </mxCell>
        <mxCell id="I3AutPQepK493rPZeZ-E-84" value="CARP&amp;nbsp;DMZ&lt;br&gt;192.168.200.23" style="text;html=1;strokeColor=none;fillColor=none;align=center;verticalAlign=middle;whiteSpace=wrap;rounded=0;" parent="1" vertex="1">
          <mxGeometry x="-558.8699999999999" y="-241.00000000000003" width="96.43" height="30" as="geometry" />
        </mxCell>
        <mxCell id="I3AutPQepK493rPZeZ-E-85" value="" style="endArrow=none;html=1;rounded=0;exitX=0.48;exitY=0.513;exitDx=0;exitDy=0;exitPerimeter=0;" parent="1" source="I3AutPQepK493rPZeZ-E-76" target="1vF6z5qYPoborKcWA8Q8-47" edge="1">
          <mxGeometry width="50" height="50" relative="1" as="geometry">
            <mxPoint x="-424.21999999999997" y="-36.00000000000001" as="sourcePoint" />
            <mxPoint x="-374.21999999999997" y="-86" as="targetPoint" />
          </mxGeometry>
        </mxCell>
        <mxCell id="I3AutPQepK493rPZeZ-E-86" value="" style="endArrow=none;html=1;rounded=0;exitX=0.48;exitY=0.513;exitDx=0;exitDy=0;exitPerimeter=0;" parent="1" source="I3AutPQepK493rPZeZ-E-76" target="1vF6z5qYPoborKcWA8Q8-48" edge="1">
          <mxGeometry width="50" height="50" relative="1" as="geometry">
            <mxPoint x="-404.21999999999997" y="-26.000000000000007" as="sourcePoint" />
            <mxPoint x="-354.21999999999997" y="-76" as="targetPoint" />
          </mxGeometry>
        </mxCell>
        <mxCell id="I3AutPQepK493rPZeZ-E-87" value="" style="endArrow=none;html=1;rounded=0;" parent="1" source="1vF6z5qYPoborKcWA8Q8-25" edge="1">
          <mxGeometry width="50" height="50" relative="1" as="geometry">
            <mxPoint x="-344.21999999999997" y="13.999999999999993" as="sourcePoint" />
            <mxPoint x="-254.22" y="-66" as="targetPoint" />
          </mxGeometry>
        </mxCell>
        <mxCell id="I3AutPQepK493rPZeZ-E-89" value="LAN&lt;br&gt;172.16.2.10" style="text;html=1;strokeColor=none;fillColor=none;align=center;verticalAlign=middle;whiteSpace=wrap;rounded=0;" parent="1" vertex="1">
          <mxGeometry x="-324.21999999999997" y="-6.000000000000007" width="60" height="30" as="geometry" />
        </mxCell>
        <mxCell id="I3AutPQepK493rPZeZ-E-90" value="LAN&lt;br&gt;172.16.2.11" style="text;html=1;strokeColor=none;fillColor=none;align=center;verticalAlign=middle;whiteSpace=wrap;rounded=0;" parent="1" vertex="1">
          <mxGeometry x="-166.22" y="-60.00000000000001" width="60" height="30" as="geometry" />
        </mxCell>
        <mxCell id="I3AutPQepK493rPZeZ-E-91" value="HSRP LAN&lt;br&gt;172.16.2.12" style="text;html=1;strokeColor=none;fillColor=none;align=center;verticalAlign=middle;whiteSpace=wrap;rounded=0;" parent="1" vertex="1">
          <mxGeometry x="-236.22" y="-13.290000000000013" width="64" height="30" as="geometry" />
        </mxCell>
        <mxCell id="I3AutPQepK493rPZeZ-E-92" value="WAN&lt;br&gt;10.0.0.102" style="text;html=1;strokeColor=none;fillColor=none;align=center;verticalAlign=middle;whiteSpace=wrap;rounded=0;" parent="1" vertex="1">
          <mxGeometry x="-272.22" y="85" width="60" height="30" as="geometry" />
        </mxCell>
        <mxCell id="I3AutPQepK493rPZeZ-E-93" value="WAN&lt;br&gt;10.0.0.122" style="text;html=1;strokeColor=none;fillColor=none;align=center;verticalAlign=middle;whiteSpace=wrap;rounded=0;" parent="1" vertex="1">
          <mxGeometry x="-80" y="-6.000000000000007" width="60" height="30" as="geometry" />
        </mxCell>
        <mxCell id="I3AutPQepK493rPZeZ-E-94" value="HSRP WAN&lt;br&gt;10.0.0.123" style="text;html=1;strokeColor=none;fillColor=none;align=center;verticalAlign=middle;whiteSpace=wrap;rounded=0;" parent="1" vertex="1">
          <mxGeometry x="-212.22" y="38.99999999999999" width="70" height="30" as="geometry" />
        </mxCell>
        <mxCell id="I3AutPQepK493rPZeZ-E-95" value="" style="endArrow=none;html=1;rounded=0;entryX=0.8;entryY=0.686;entryDx=0;entryDy=0;entryPerimeter=0;exitX=0.489;exitY=0.551;exitDx=0;exitDy=0;exitPerimeter=0;" parent="1" source="1vF6z5qYPoborKcWA8Q8-24" target="I3AutPQepK493rPZeZ-E-76" edge="1">
          <mxGeometry width="50" height="50" relative="1" as="geometry">
            <mxPoint x="-414.21999999999997" y="33.99999999999999" as="sourcePoint" />
            <mxPoint x="-364.21999999999997" y="-16.000000000000007" as="targetPoint" />
          </mxGeometry>
        </mxCell>
        <mxCell id="I3AutPQepK493rPZeZ-E-96" value="&lt;font style=&quot;font-size: 10px;&quot;&gt;WEB STORAGE&lt;br&gt;DB + FILE&lt;br&gt;192.168.2.43&lt;br&gt;&lt;/font&gt;" style="sketch=0;pointerEvents=1;shadow=0;dashed=0;html=1;strokeColor=none;fillColor=#505050;labelPosition=center;verticalLabelPosition=bottom;verticalAlign=top;outlineConnect=0;align=center;shape=mxgraph.office.servers.file_server;" parent="1" vertex="1">
          <mxGeometry x="-620.72" y="-506" width="36.5" height="36" as="geometry" />
        </mxCell>
        <mxCell id="pVeMIlFi2ukEuzGGwC0i-1" value="" style="sketch=0;points=[[0.015,0.015,0],[0.985,0.015,0],[0.985,0.985,0],[0.015,0.985,0],[0.25,0,0],[0.5,0,0],[0.75,0,0],[1,0.25,0],[1,0.5,0],[1,0.75,0],[0.75,1,0],[0.5,1,0],[0.25,1,0],[0,0.75,0],[0,0.5,0],[0,0.25,0]];verticalLabelPosition=bottom;html=1;verticalAlign=top;aspect=fixed;align=center;pointerEvents=1;shape=mxgraph.cisco19.rect;prIcon=l2_switch;fillColor=#FF99FF;strokeColor=#005073;" parent="1" vertex="1">
          <mxGeometry x="-778.27" y="-350" width="50" height="50" as="geometry" />
        </mxCell>
        <mxCell id="pVeMIlFi2ukEuzGGwC0i-2" value="CARP LAN&lt;br&gt;192.168.1.23" style="text;html=1;strokeColor=none;fillColor=none;align=center;verticalAlign=middle;whiteSpace=wrap;rounded=0;" parent="1" vertex="1">
          <mxGeometry x="154.03" y="-176" width="72" height="30" as="geometry" />
        </mxCell>
        <mxCell id="pVeMIlFi2ukEuzGGwC0i-3" value="CARP WAN&lt;br&gt;172.16.1.23" style="text;html=1;strokeColor=none;fillColor=none;align=center;verticalAlign=middle;whiteSpace=wrap;rounded=0;" parent="1" vertex="1">
          <mxGeometry x="144.03" y="-120.28999999999999" width="92" height="30" as="geometry" />
        </mxCell>
        <mxCell id="pVeMIlFi2ukEuzGGwC0i-4" value="CARP WAN&lt;br&gt;172.16.2.23" style="text;html=1;strokeColor=none;fillColor=none;align=center;verticalAlign=middle;whiteSpace=wrap;rounded=0;" parent="1" vertex="1">
          <mxGeometry x="-376.26" y="-160.29" width="87" height="30" as="geometry" />
        </mxCell>
        <mxCell id="pVeMIlFi2ukEuzGGwC0i-7" value="CARP WAN&lt;br&gt;172.16.3.23" style="text;html=1;strokeColor=none;fillColor=none;align=center;verticalAlign=middle;whiteSpace=wrap;rounded=0;" parent="1" vertex="1">
          <mxGeometry x="-556" y="105" width="66" height="30" as="geometry" />
        </mxCell>
        <mxCell id="pVeMIlFi2ukEuzGGwC0i-8" value="CARP WAN&lt;br&gt;172.16.16.23" style="text;html=1;strokeColor=none;fillColor=none;align=center;verticalAlign=middle;whiteSpace=wrap;rounded=0;" parent="1" vertex="1">
          <mxGeometry x="-559.04" y="335" width="75" height="30" as="geometry" />
        </mxCell>
        <mxCell id="pVeMIlFi2ukEuzGGwC0i-9" value="CARP WAN&lt;br&gt;172.16.6.23" style="text;html=1;strokeColor=none;fillColor=none;align=center;verticalAlign=middle;whiteSpace=wrap;rounded=0;" parent="1" vertex="1">
          <mxGeometry x="-421.42999999999995" y="528" width="70" height="30" as="geometry" />
        </mxCell>
        <mxCell id="pVeMIlFi2ukEuzGGwC0i-10" value="CARP WAN&lt;br&gt;172.16.5.23" style="text;html=1;strokeColor=none;fillColor=none;align=center;verticalAlign=middle;whiteSpace=wrap;rounded=0;" parent="1" vertex="1">
          <mxGeometry x="-152" y="643" width="72" height="30" as="geometry" />
        </mxCell>
        <mxCell id="pVeMIlFi2ukEuzGGwC0i-11" value="CARP WAN&lt;br&gt;172.16.4.23" style="text;html=1;strokeColor=none;fillColor=none;align=center;verticalAlign=middle;whiteSpace=wrap;rounded=0;" parent="1" vertex="1">
          <mxGeometry x="120" y="495" width="75" height="30" as="geometry" />
        </mxCell>
        <mxCell id="pVeMIlFi2ukEuzGGwC0i-12" value="CARP WAN&lt;br&gt;172.16.12.23" style="text;html=1;strokeColor=none;fillColor=none;align=center;verticalAlign=middle;whiteSpace=wrap;rounded=0;" parent="1" vertex="1">
          <mxGeometry x="723.5" y="665" width="70" height="30" as="geometry" />
        </mxCell>
        <mxCell id="pVeMIlFi2ukEuzGGwC0i-13" value="CARP WAN&lt;br&gt;172.16.11.23" style="text;html=1;strokeColor=none;fillColor=none;align=center;verticalAlign=middle;whiteSpace=wrap;rounded=0;" parent="1" vertex="1">
          <mxGeometry x="1180" y="522.5" width="70" height="30" as="geometry" />
        </mxCell>
        <mxCell id="pVeMIlFi2ukEuzGGwC0i-14" value="CARP WAN&lt;br&gt;172.16.10.23" style="text;html=1;strokeColor=none;fillColor=none;align=center;verticalAlign=middle;whiteSpace=wrap;rounded=0;" parent="1" vertex="1">
          <mxGeometry x="1240" y="181" width="70" height="30" as="geometry" />
        </mxCell>
        <mxCell id="HcDiLGQW-zu7AFygLWUx-1" value="169.16.0.0&lt;br&gt;255.255.255.0" style="text;html=1;align=center;verticalAlign=middle;whiteSpace=wrap;rounded=0;fillColor=default;" vertex="1" parent="1">
          <mxGeometry x="-19.99999999999997" y="160.70999999999998" width="98" height="45" as="geometry" />
        </mxCell>
        <mxCell id="HcDiLGQW-zu7AFygLWUx-4" value="OpenVPN&lt;br&gt;169.16.0.1" style="text;html=1;align=center;verticalAlign=middle;whiteSpace=wrap;rounded=0;" vertex="1" parent="1">
          <mxGeometry x="-200" y="84.00000000000001" width="60" height="30" as="geometry" />
        </mxCell>
        <mxCell id="HcDiLGQW-zu7AFygLWUx-5" value="WireGuard&lt;br&gt;192.17.0.1" style="text;html=1;align=center;verticalAlign=middle;whiteSpace=wrap;rounded=0;" vertex="1" parent="1">
          <mxGeometry x="-101.98" y="45" width="60" height="30" as="geometry" />
        </mxCell>
        <mxCell id="HcDiLGQW-zu7AFygLWUx-9" value="" style="endArrow=none;html=1;rounded=0;exitX=0;exitY=0.75;exitDx=0;exitDy=0;exitPerimeter=0;" edge="1" parent="1" source="1vF6z5qYPoborKcWA8Q8-17" target="1vF6z5qYPoborKcWA8Q8-12">
          <mxGeometry width="50" height="50" relative="1" as="geometry">
            <mxPoint x="-790" y="230" as="sourcePoint" />
            <mxPoint x="-740" y="180" as="targetPoint" />
          </mxGeometry>
        </mxCell>
        <mxCell id="HcDiLGQW-zu7AFygLWUx-10" value="169.18.0.0&lt;br&gt;255.255.255.0" style="text;html=1;align=center;verticalAlign=middle;whiteSpace=wrap;rounded=0;" vertex="1" parent="1">
          <mxGeometry x="1030" y="313" width="60" height="30" as="geometry" />
        </mxCell>
        <mxCell id="HcDiLGQW-zu7AFygLWUx-11" value="OpenVPN&lt;br&gt;169.18.0.1" style="text;html=1;align=center;verticalAlign=middle;whiteSpace=wrap;rounded=0;" vertex="1" parent="1">
          <mxGeometry x="987" y="450" width="60" height="30" as="geometry" />
        </mxCell>
      </root>
    </mxGraphModel>
  </diagram>
</mxfile>
